<svg width="150" height="146" viewBox="0 0 150 146" fill="none" xmlns="http://www.w3.org/2000/svg">
<circle cx="70.7573" cy="95.5229" r="49.1479" fill="white" stroke="#94B4E9"/>
<path d="M59.4835 70.9585C59.4835 70.9585 37.2112 71.2534 36.5173 72.8391C35.8233 74.4248 32.6554 93.6298 32.4577 100.25C32.2599 106.87 32.1627 111.239 32.8532 112.03C33.5437 112.821 44.3381 119.06 44.3381 119.06C44.3381 119.06 39.2896 136.78 40.8683 137.376C42.4471 137.973 52.1554 140.444 58.3905 140.544C64.6257 140.645 70.7671 140.641 71.2633 140.641C71.7595 140.641 87.696 141.235 93.2406 139.947C98.7853 138.66 100.465 138.56 100.465 136.384C100.465 134.208 99.0767 131.526 98.9796 131.041C98.8824 130.555 102.744 93.0226 100.565 83.8174C98.3863 74.6122 95.5168 71.0453 93.3378 70.4519C91.1588 69.8586 75.6178 70.2542 75.6178 70.2542L59.4835 70.9585Z" fill="#2F5EAC"/>
<path d="M79.8478 140.971C77.419 140.971 74.7092 140.932 71.7876 140.849H71.3053C70.195 140.849 64.3659 140.849 58.4326 140.752C52.0934 140.651 42.392 138.15 40.8514 137.57C40.5044 137.445 39.7168 137.147 41.8923 127.99C42.843 123.958 43.9742 119.944 44.1824 119.177C42.9506 118.466 33.4435 112.949 32.7738 112.179C32.0417 111.342 32.125 107.321 32.3332 100.281C32.5344 93.5739 35.7543 74.289 36.4067 72.7936C37.1006 71.1871 55.7852 70.8575 59.529 70.8089L75.6633 70.1149C76.3018 70.0976 91.2772 69.7263 93.4354 70.3196C94.7747 70.6666 98.1646 72.7277 100.788 83.81C102.582 91.3949 100.326 117.723 99.4762 127.633C99.3131 129.538 99.1951 130.915 99.2055 131.051C99.2835 131.292 99.3739 131.53 99.4762 131.762C99.8995 132.803 100.691 134.76 100.691 136.418C100.691 138.5 99.2784 138.805 95.08 139.753L93.3451 140.152C90.951 140.7 86.2703 140.971 79.8478 140.971ZM85.5209 70.3196C80.8055 70.3196 75.7535 70.4446 75.6633 70.448L59.529 71.142C50.9588 71.2565 37.1908 71.8359 36.7189 72.9185C36.0701 74.4001 32.8745 93.5947 32.6732 100.277C32.4997 106.117 32.3471 111.162 33.0202 111.939C33.5719 112.571 41.4655 117.199 44.4703 118.931C44.5038 118.95 44.5298 118.98 44.5442 119.016C44.5587 119.052 44.5608 119.091 44.5501 119.129C42.0832 127.765 40.0742 136.883 40.9728 137.23C42.503 137.803 52.1385 140.287 58.4361 140.388C64.3728 140.481 70.195 140.485 71.3053 140.485H71.798C82.3842 140.783 90.0003 140.537 93.2411 139.791C93.876 139.642 94.4589 139.513 94.9933 139.392C99.0945 138.465 100.333 138.184 100.333 136.394C100.333 134.805 99.5595 132.893 99.1431 131.866C99.0299 131.611 98.9325 131.349 98.8516 131.082C98.8343 130.981 98.8829 130.37 99.1223 127.577C99.9689 117.682 102.221 91.3983 100.437 83.8586C97.8593 72.9566 94.6116 70.972 93.3347 70.6215C92.4222 70.3925 89.0669 70.3196 85.5209 70.3196Z" fill="#263238"/>
<path d="M69.057 80.2695C69.0231 80.2701 68.9897 80.2605 68.9613 80.2419C68.9328 80.2233 68.9106 80.1967 68.8974 80.1654C68.8882 80.1444 68.8833 80.1219 68.8828 80.099C68.8824 80.0761 68.8865 80.0534 68.8949 80.0321C68.9033 80.0108 68.9158 79.9914 68.9317 79.975C68.9476 79.9586 68.9666 79.9454 68.9876 79.9364C69.7766 79.5994 70.5437 79.2135 71.2846 78.781C71.3044 78.7696 71.3263 78.7622 71.349 78.7593C71.3716 78.7563 71.3947 78.7579 71.4167 78.7638C71.4388 78.7698 71.4595 78.78 71.4776 78.794C71.4957 78.8079 71.5109 78.8253 71.5223 78.8452C71.5337 78.865 71.5411 78.8868 71.544 78.9095C71.5469 78.9322 71.5454 78.9552 71.5394 78.9773C71.5335 78.9994 71.5232 79.02 71.5093 79.0382C71.4953 79.0563 71.4779 79.0714 71.4581 79.0828C70.7048 79.5219 69.9249 79.9136 69.123 80.2556C69.1023 80.2652 69.0798 80.2699 69.057 80.2695Z" fill="#263238"/>
<path d="M72.4153 78.4647C72.3867 78.4644 72.3586 78.4574 72.3333 78.4441C72.3079 78.4308 72.2861 78.4117 72.2696 78.3883C72.2448 78.3497 72.2364 78.3028 72.2461 78.2579C72.2559 78.213 72.2831 78.1738 72.3217 78.1489C75.0798 76.3118 77.5012 74.0137 79.4797 71.3552C79.4929 71.3364 79.5096 71.3204 79.529 71.3082C79.5483 71.2959 79.5699 71.2876 79.5925 71.2837C79.6151 71.2799 79.6382 71.2805 79.6605 71.2856C79.6829 71.2907 79.704 71.3002 79.7226 71.3135C79.7413 71.3264 79.7572 71.3428 79.7694 71.3618C79.7816 71.3809 79.7899 71.4022 79.7938 71.4245C79.7976 71.4468 79.797 71.4696 79.792 71.4917C79.7869 71.5138 79.7775 71.5346 79.7642 71.553C77.7591 74.246 75.3062 76.5746 72.5125 78.4369C72.4838 78.456 72.4498 78.4657 72.4153 78.4647Z" fill="#263238"/>
<path d="M74.4475 79.4224C74.4164 79.4221 74.3858 79.4137 74.359 79.3978C74.3322 79.382 74.3101 79.3593 74.2948 79.3322C74.2838 79.3122 74.2769 79.2902 74.2744 79.2674C74.272 79.2447 74.274 79.2217 74.2805 79.1998C74.2869 79.1779 74.2977 79.1575 74.312 79.1397C74.3264 79.1219 74.3441 79.1072 74.3642 79.0963C76.0991 78.1664 78.1289 75.3316 78.1497 75.3038C78.162 75.2831 78.1784 75.2652 78.1979 75.2512C78.2175 75.2372 78.2397 75.2274 78.2633 75.2225C78.2868 75.2175 78.3111 75.2175 78.3346 75.2225C78.3582 75.2274 78.3804 75.2372 78.4 75.2512C78.4195 75.2652 78.436 75.2831 78.4482 75.3038C78.4605 75.3245 78.4683 75.3475 78.4712 75.3714C78.4741 75.3952 78.472 75.4195 78.465 75.4425C78.4581 75.4655 78.4464 75.4868 78.4308 75.5051C78.3475 75.6231 76.3489 78.4335 74.5273 79.4016C74.503 79.4154 74.4755 79.4226 74.4475 79.4224Z" fill="#263238"/>
<path d="M64.1383 107.316C64.1018 107.316 64.0664 107.303 64.0371 107.282C64.0078 107.26 63.9862 107.229 63.9752 107.195L63.3923 105.383C63.3847 105.362 63.3817 105.339 63.3832 105.316C63.3847 105.293 63.3909 105.271 63.4012 105.25C63.4116 105.23 63.426 105.212 63.4435 105.197C63.4611 105.182 63.4814 105.171 63.5033 105.165C63.547 105.151 63.5946 105.154 63.6356 105.175C63.6766 105.196 63.7076 105.232 63.7219 105.276L64.3048 107.087C64.3191 107.131 64.3154 107.178 64.2945 107.219C64.2737 107.26 64.2375 107.291 64.1938 107.306C64.1761 107.312 64.1573 107.316 64.1383 107.316Z" fill="#263238"/>
<path d="M67.3387 117.165C67.302 117.165 67.2663 117.154 67.237 117.132C67.2076 117.11 67.186 117.079 67.1756 117.044L64.5941 109.032C64.5798 108.986 64.5844 108.936 64.6069 108.894C64.6293 108.851 64.6678 108.819 64.7138 108.805C64.7598 108.791 64.8096 108.795 64.8522 108.818C64.8948 108.84 64.9268 108.879 64.9411 108.925L67.5225 116.94C67.5358 116.984 67.5317 117.031 67.511 117.071C67.4903 117.112 67.4547 117.143 67.4115 117.158L67.3387 117.165Z" fill="#263238"/>
<path d="M68.1288 117.383C68.0953 117.385 68.0623 117.375 68.0351 117.355C68.0157 117.343 67.9989 117.328 67.9856 117.309C67.9723 117.29 67.9628 117.269 67.9576 117.247C67.9525 117.225 67.9517 117.202 67.9555 117.179C67.9593 117.157 67.9674 117.135 67.9796 117.116L70.5541 113.06C70.5658 113.04 70.5814 113.023 70.5999 113.009C70.6185 112.996 70.6396 112.986 70.6619 112.981C70.6843 112.976 70.7075 112.975 70.7301 112.979C70.7527 112.983 70.7743 112.992 70.7935 113.004C70.832 113.029 70.8593 113.068 70.8696 113.113C70.88 113.158 70.8726 113.204 70.849 113.244L68.2745 117.303C68.2586 117.328 68.237 117.348 68.2116 117.361C68.1862 117.375 68.1577 117.383 68.1288 117.383Z" fill="#263238"/>
<path d="M73.9495 115.001C73.9156 115.002 73.8822 114.993 73.8534 114.975C73.8247 114.957 73.802 114.931 73.7882 114.9C73.7744 114.869 73.7701 114.835 73.776 114.802C73.7819 114.768 73.7976 114.737 73.8211 114.713L80.0667 107.683C80.0975 107.649 80.1408 107.628 80.187 107.625C80.2332 107.623 80.2785 107.639 80.313 107.669C80.3475 107.7 80.3684 107.743 80.371 107.79C80.3736 107.836 80.3577 107.881 80.3269 107.916L74.0814 114.945C74.0647 114.964 74.0443 114.978 74.0216 114.988C73.9988 114.997 73.9742 115.002 73.9495 115.001Z" fill="#263238"/>
<path d="M71.2993 140.821H71.2507L57.8124 136.903C57.7905 136.897 57.7701 136.886 57.7524 136.872C57.7346 136.858 57.7198 136.84 57.7089 136.82C57.6979 136.8 57.691 136.778 57.6885 136.756C57.6861 136.733 57.6881 136.71 57.6944 136.688C57.7004 136.666 57.7108 136.645 57.7249 136.627C57.7391 136.609 57.7568 136.594 57.7769 136.583C57.7969 136.572 57.8191 136.566 57.8419 136.563C57.8647 136.561 57.8877 136.563 57.9096 136.57L71.3444 140.481C71.3904 140.487 71.432 140.512 71.46 140.549C71.488 140.586 71.5 140.632 71.4936 140.678C71.4872 140.725 71.4627 140.766 71.4256 140.794C71.3885 140.822 71.3418 140.834 71.2958 140.828L71.2993 140.821Z" fill="#263238"/>
<path d="M56.2653 136.456H56.2167L53.9128 135.783C53.8668 135.77 53.8278 135.74 53.8044 135.698C53.781 135.657 53.775 135.607 53.7879 135.561C53.8008 135.515 53.8314 135.476 53.8731 135.453C53.9147 135.429 53.964 135.423 54.01 135.436L56.3139 136.109C56.3358 136.116 56.3562 136.126 56.3739 136.141C56.3917 136.155 56.4065 136.173 56.4174 136.193C56.4284 136.213 56.4353 136.235 56.4378 136.257C56.4403 136.28 56.4382 136.303 56.4319 136.325C56.4226 136.362 56.4013 136.395 56.3711 136.419C56.341 136.443 56.3038 136.456 56.2653 136.456Z" fill="#263238"/>
<path d="M59.3719 26.9452C59.3719 26.9452 52.3804 25.3387 51.0445 27.1361C49.7087 28.9334 52.37 30.6336 51.9918 31.0118C51.6136 31.39 43.484 35.5467 44.1432 39.6133C44.8025 43.6798 50.2881 47.8366 50.479 48.9816C50.6698 50.1266 44.1432 50.4944 43.2931 52.1945C42.443 53.8947 41.2113 61.9306 48.3034 64.5781C55.3956 67.2255 64.2643 62.7807 66.7347 62.7807C69.2052 62.7807 71.6514 67.6037 74.4861 67.3192C76.2131 67.1216 77.8012 66.2773 78.9309 64.9563C78.9309 64.9563 81.8593 69.0228 86.1132 67.3192C90.3671 65.6155 95.2838 59.6614 93.2054 57.8676C91.127 56.0737 88.7607 55.5047 90.2735 53.8982C91.7863 52.2917 94.9056 48.0378 94.4372 44.3495C93.9687 40.6611 89.6142 40.3801 87.914 39.2455C86.2139 38.1109 89.8051 36.2199 89.7114 33.1006C89.6177 29.9813 87.345 24.7732 75.815 21.3034C64.2851 17.8337 58.6121 19.5061 58.043 22.438C57.8652 23.2404 57.8938 24.0747 58.1262 24.863C58.3586 25.6513 58.7872 26.3677 59.3719 26.9452Z" fill="#263238"/>
<path d="M84.0514 67.8858C81.3485 67.8858 79.4401 65.8283 78.9301 65.2106C77.7828 66.484 76.2092 67.2936 74.5062 67.4868C72.9274 67.6464 71.4979 66.3314 70.1204 65.058C68.9407 63.9685 67.8234 62.9414 66.7374 62.9414C66.0747 62.9414 64.8846 63.2884 63.3787 63.7325C59.4058 64.8949 53.3997 66.6506 48.2471 64.7283C45.7836 63.8089 44.0835 62.1746 43.1674 59.8707C41.953 56.7757 42.5498 53.2782 43.1397 52.1054C43.6254 51.1374 45.6934 50.5961 47.5185 50.1207C48.7919 49.7738 50.3741 49.3747 50.2943 48.9965C50.2145 48.6183 49.5101 47.8689 48.667 46.9598C46.9703 45.1243 44.4027 42.352 43.962 39.6386C43.3826 36.0821 49.0799 32.5985 51.2277 31.287C51.5261 31.1031 51.8106 30.94 51.8557 30.8845C51.743 30.6942 51.6153 30.5132 51.474 30.3432C50.898 29.5937 49.9334 28.3342 50.8946 27.0296C52.0604 25.4474 57.1401 26.3356 58.8472 26.6583C58.3757 26.0632 58.0434 25.3701 57.8747 24.6298C57.706 23.8895 57.7051 23.1208 57.8722 22.3801C57.976 21.9337 58.174 21.5145 58.4528 21.1507C58.7317 20.7869 59.085 20.4868 59.4891 20.2705C62.3794 18.5357 68.3508 18.8341 75.8628 21.1137C87.8543 24.75 89.7939 30.1766 89.8841 33.0912C89.9292 34.6595 89.0895 35.9121 88.4129 36.9079C87.9514 37.6019 87.5559 38.1848 87.6391 38.6116C87.6657 38.7113 87.7124 38.8046 87.7762 38.8858C87.84 38.9669 87.9197 39.0342 88.0104 39.0835C88.5895 39.418 89.2025 39.6902 89.839 39.8954C91.8063 40.624 94.2525 41.5331 94.6064 44.3124C95.0713 47.9383 92.1776 52.1089 90.4011 53.9999C90.2701 54.1084 90.1641 54.244 90.0905 54.3973C90.0168 54.5506 89.9772 54.7181 89.9743 54.8882C90.0298 55.3947 90.7133 55.8562 91.5808 56.4357C92.1842 56.8285 92.7635 57.2572 93.3156 57.7195C93.5508 57.9429 93.7223 58.2249 93.8126 58.5364C93.9028 58.848 93.9085 59.178 93.8292 59.4925C93.392 62.1017 89.5302 66.1232 86.1784 67.4729C85.502 67.7443 84.7802 67.8845 84.0514 67.8858ZM78.9336 64.763C78.9603 64.7634 78.9866 64.7702 79.0101 64.7829C79.0337 64.7956 79.0538 64.8138 79.0689 64.8359C79.1001 64.8741 81.9731 68.7706 86.05 67.1398C89.3116 65.8352 93.0658 61.9352 93.4857 59.4335C93.5932 58.7881 93.4614 58.2989 93.0901 57.9797C92.5477 57.5297 91.9788 57.1126 91.3865 56.7306C90.4462 56.0991 89.7036 55.5994 89.6273 54.9367C89.6238 54.7154 89.6688 54.4959 89.7594 54.2939C89.8499 54.0918 89.9837 53.9121 90.1512 53.7674C91.7681 52.0326 94.714 47.8689 94.2629 44.361C93.9333 41.7933 91.5947 40.9259 89.7175 40.2285C89.0556 40.0143 88.4182 39.7305 87.8161 39.3819C87.6876 39.307 87.5756 39.2069 87.4867 39.0877C87.3979 38.9684 87.3341 38.8325 87.2991 38.6879C87.1881 38.1224 87.601 37.5047 88.1249 36.724C88.7738 35.7595 89.5787 34.5589 89.5371 33.1016C89.4504 30.2807 87.5489 25.0206 75.7622 21.4468C68.3439 19.1949 62.4766 18.8757 59.6695 20.5689C59.3072 20.7603 58.9898 21.0267 58.7385 21.3504C58.4872 21.6741 58.3078 22.0476 58.2122 22.4461C58.0379 23.2225 58.0626 24.0303 58.284 24.7946C58.5054 25.559 58.9164 26.2549 59.4787 26.8179C59.5075 26.844 59.5271 26.8787 59.5346 26.9169C59.5421 26.955 59.5371 26.9945 59.5203 27.0296C59.5027 27.0642 59.474 27.0919 59.4388 27.1083C59.4035 27.1246 59.3638 27.1287 59.326 27.1198C57.4107 26.6791 52.2165 25.8464 51.186 27.2412C50.381 28.3377 51.186 29.3786 51.762 30.1419C52.109 30.5826 52.3484 30.9053 52.109 31.1378C51.8892 31.3062 51.6573 31.4581 51.415 31.5923C49.524 32.7477 43.7816 36.2626 44.3125 39.5901C44.7358 42.1993 47.2583 44.9265 48.9307 46.7308C49.9196 47.7995 50.5719 48.5038 50.6447 48.948C50.7592 49.6419 49.4338 49.9889 47.6018 50.4642C45.9328 50.8979 43.8579 51.4392 43.4381 52.2685C42.8899 53.3649 42.3139 56.7965 43.4762 59.7493C43.8998 60.8351 44.556 61.815 45.3989 62.6201C46.2417 63.4251 47.2506 64.0358 48.3547 64.4091C53.3997 66.2932 59.3364 64.5549 63.2746 63.4064C64.8082 62.9588 66.0157 62.6014 66.7443 62.6014C67.9657 62.6014 69.1315 63.6735 70.3633 64.8081C71.6853 66.026 73.0523 67.2821 74.4784 67.1398C76.1564 66.9429 77.6993 66.1232 78.8017 64.8428C78.8162 64.8205 78.8357 64.8017 78.8585 64.7878C78.8813 64.774 78.907 64.7655 78.9336 64.763Z" fill="#263238"/>
<path d="M60.6222 57.2577C60.6222 57.2577 58.2593 72.0042 58.1656 72.476C58.0719 72.9479 62.3293 77.2018 68.089 76.4454C71.4629 76.0399 74.5638 74.3892 76.7842 71.8168L74.9904 57.1641C74.9904 57.1641 70.0737 59.527 67.0481 59.4333C64.0225 59.3396 60.6222 57.2577 60.6222 57.2577Z" fill="white"/>
<path d="M66.7555 76.7224C63.6598 76.6718 60.7031 75.4289 58.5009 73.2526C57.9701 72.6871 58.0082 72.5066 58.0221 72.4372C58.1123 71.9758 60.4509 57.3751 60.4752 57.2259C60.4803 57.1978 60.492 57.1714 60.5094 57.1488C60.5269 57.1263 60.5495 57.1083 60.5754 57.0964C60.6013 57.0844 60.6297 57.0789 60.6581 57.0803C60.6866 57.0818 60.7143 57.09 60.7389 57.1044C60.7736 57.1253 64.1393 59.162 67.0816 59.2557C70.024 59.3494 74.892 57.0281 74.9406 57.0038C74.9652 56.991 74.9926 56.9844 75.0204 56.9844C75.0482 56.9844 75.0755 56.991 75.1002 57.0038C75.1239 57.0176 75.144 57.0367 75.1591 57.0595C75.1741 57.0824 75.1837 57.1085 75.1869 57.1357L76.9843 71.7849C76.9872 71.8076 76.9857 71.8305 76.9797 71.8526C76.9737 71.8746 76.9635 71.8952 76.9496 71.9133C74.6931 74.5124 71.5554 76.1856 68.1399 76.6113C67.6814 76.6788 67.2189 76.7159 66.7555 76.7224ZM60.7806 57.5486C60.4579 59.5575 58.4489 72.0833 58.3517 72.524C58.4246 72.9542 62.4565 77.0346 68.067 76.2887C71.3658 75.8723 74.4 74.2688 76.6026 71.778L74.8747 57.4306C73.8754 57.8921 69.7776 59.6998 67.0712 59.6165C64.4446 59.5367 61.589 58.0135 60.7806 57.5486Z" fill="#263238"/>
<path d="M59.6484 65.1923L69.6031 63.2666L60.62 57.2812L59.6484 65.1923Z" fill="#263238"/>
<path d="M59.6791 65.3396C59.6358 65.3384 59.5942 65.3225 59.5611 65.2945C59.5417 65.2752 59.5269 65.2517 59.5179 65.2259C59.5089 65.2 59.5058 65.1725 59.5091 65.1453L60.4771 57.2343C60.4807 57.2049 60.4918 57.177 60.5095 57.1533C60.5271 57.1295 60.5506 57.1108 60.5777 57.099C60.604 57.0853 60.6331 57.0781 60.6627 57.0781C60.6923 57.0781 60.7215 57.0853 60.7478 57.099L69.7275 63.0877C69.7566 63.106 69.7795 63.1328 69.7931 63.1643C69.8067 63.1959 69.8105 63.2309 69.8038 63.2647C69.7967 63.2985 69.7798 63.3294 69.7551 63.3535C69.7303 63.3776 69.699 63.3938 69.665 63.4L59.7138 65.3257L59.6791 65.3396ZM60.7894 57.557L59.8803 64.951L69.1827 63.1502L60.7894 57.557Z" fill="#263238"/>
<path d="M55.3632 44.269C55.3632 44.269 53.6977 42.1594 52.9344 44.8242C52.1711 47.489 55.4881 50.7228 55.4881 50.7228L55.3632 44.269Z" fill="white"/>
<path d="M55.484 50.879C55.4429 50.8771 55.4037 50.8612 55.373 50.8339C55.2342 50.6986 51.9761 47.5099 52.7741 44.7758C53.0274 43.9083 53.4091 43.4191 53.9087 43.3219C54.7206 43.1658 55.4875 44.12 55.5187 44.1616C55.5429 44.1909 55.5564 44.2277 55.5569 44.2657L55.6679 50.7055C55.6678 50.7398 55.658 50.7733 55.6395 50.8022C55.6211 50.8311 55.5948 50.8541 55.5638 50.8686C55.5378 50.876 55.511 50.8795 55.484 50.879ZM54.0961 43.6481C54.0569 43.6445 54.0174 43.6445 53.9781 43.6481C53.6311 43.7175 53.3223 44.1373 53.1107 44.859C52.5104 46.9201 54.5263 49.3905 55.3174 50.2545L55.2133 44.3178C55.0017 44.0957 54.5229 43.6481 54.0822 43.6481H54.0961Z" fill="#263238"/>
<path d="M79.2499 44.269C79.2499 44.269 80.9154 42.1594 81.6787 44.8242C82.4421 47.489 79.125 50.7228 79.125 50.7228L79.2499 44.269Z" fill="white"/>
<path d="M79.1424 50.8771C79.1194 50.8807 79.0959 50.8807 79.073 50.8771C79.0411 50.8637 79.0141 50.841 78.9955 50.8118C78.9769 50.7827 78.9676 50.7486 78.9689 50.714L79.0799 44.2742C79.0808 44.2368 79.0929 44.2006 79.1146 44.1701C79.1493 44.1285 79.9196 43.1708 80.7246 43.3304C81.2277 43.4276 81.6093 43.9168 81.8626 44.7842C82.6572 47.5184 79.3991 50.7071 79.2603 50.8424C79.2267 50.8683 79.1846 50.8807 79.1424 50.8771ZM79.4234 44.3262L79.3332 50.263C80.1208 49.399 82.1402 46.9285 81.5399 44.8675C81.3283 44.1458 81.0264 43.726 80.669 43.6566C80.1902 43.5664 79.642 44.0729 79.4234 44.3262Z" fill="#263238"/>
<path d="M60.6108 30.9344C60.6108 30.9344 55.8433 35.5665 55.1528 36.9544C54.4624 38.3423 54.7399 54.1574 55.4998 55.691C56.2597 57.2246 63.8584 63.1544 65.1006 63.6367C66.3428 64.119 69.1775 64.6048 71.3878 63.4979C73.598 62.3911 78.9171 56.7285 79.4723 55.2781C80.0274 53.8278 79.3335 37.2354 78.9865 35.6567C78.6395 34.078 70.2983 28.3772 66.7591 28.1031C63.22 27.829 60.6108 30.9344 60.6108 30.9344Z" fill="white"/>
<path d="M68.212 64.304C67.1257 64.3098 66.0468 64.1266 65.0233 63.7627C63.6874 63.2422 56.0991 57.2708 55.3288 55.7337C54.5585 54.1966 54.2601 38.2983 54.9818 36.8549C55.6758 35.467 60.1865 31.0638 60.4675 30.8036C60.641 30.5989 63.2433 27.6392 66.7581 27.9168C70.1897 28.1874 78.7531 33.7876 79.1417 35.5815C79.4643 37.0734 80.1826 53.815 79.617 55.3035C79.0237 56.8649 73.6387 62.524 71.4492 63.6309C70.436 64.1003 69.3284 64.3307 68.212 64.304ZM66.3036 28.2464C63.1253 28.2464 60.752 31.0049 60.7277 31.0222C60.6792 31.0673 55.9742 35.6474 55.3045 36.9867C54.6349 38.326 54.9298 54.1134 55.6515 55.5533C56.3732 56.9932 63.8956 62.9196 65.1621 63.4123C66.4945 63.9293 69.2286 64.3213 71.3104 63.2804C73.5415 62.1666 78.7982 56.4936 79.3082 55.1543C79.8668 53.69 79.1382 37.1116 78.8155 35.6335C78.4928 34.1554 70.2244 28.5344 66.7408 28.2672C66.5985 28.2672 66.4563 28.2464 66.314 28.2464H66.3036Z" fill="#263238"/>
<path d="M64.3505 28.0994C64.3505 28.0994 71.4912 34.6156 76.6264 34.8654L81.7651 35.1153C81.7651 35.1153 70.4884 33.6129 66.9805 25.9725C66.9805 25.9725 63.0979 22.7248 64.3505 28.0994Z" fill="#263238"/>
<path d="M81.7576 35.2874L76.6224 35.0376C71.4837 34.7877 64.5303 28.4971 64.2354 28.2265C64.2103 28.203 64.1923 28.1729 64.1834 28.1397C63.7705 26.3632 63.8607 25.3223 64.4609 24.9545C65.3492 24.4097 66.921 25.6901 67.0945 25.8358C67.1153 25.8525 67.132 25.8739 67.143 25.8983C70.5712 33.3652 81.6778 34.9196 81.7888 34.9439C81.8337 34.9491 81.8747 34.9716 81.9032 35.0066C81.9317 35.0416 81.9454 35.0863 81.9415 35.1312C81.9363 35.1757 81.9144 35.2165 81.8803 35.2455C81.8462 35.2745 81.8023 35.2895 81.7576 35.2874ZM64.4991 28.0009C65.082 28.5214 71.8098 34.4477 76.6432 34.6837L79.5439 34.8259C76.0742 33.9515 69.4088 31.6025 66.8481 26.0718C66.3971 25.7005 65.2069 24.899 64.6448 25.2425C64.3256 25.4368 64.0584 26.0683 64.4991 28.0079V28.0009Z" fill="#263238"/>
<path d="M68.9054 48.1767C68.8617 48.1769 68.8196 48.1605 68.7874 48.1309C68.7552 48.1013 68.7354 48.0607 68.7319 48.0171L68.1802 41.0395C68.1784 41.0167 68.1811 40.9938 68.1881 40.972C68.1952 40.9503 68.2064 40.9301 68.2212 40.9127C68.2361 40.8953 68.2542 40.881 68.2745 40.8706C68.2949 40.8602 68.3171 40.8539 68.3398 40.8521C68.3626 40.8503 68.3856 40.853 68.4073 40.86C68.429 40.867 68.4492 40.8783 68.4666 40.8931C68.484 40.9079 68.4983 40.926 68.5087 40.9464C68.5191 40.9667 68.5254 40.9889 68.5272 41.0117L69.0789 47.9894C69.0808 48.0122 69.0782 48.0351 69.0712 48.0569C69.0642 48.0787 69.0529 48.0989 69.0381 48.1163C69.0232 48.1337 69.0051 48.148 68.9847 48.1584C68.9643 48.1687 68.9421 48.175 68.9193 48.1767H68.9054Z" fill="#263238"/>
<path d="M67.3022 51.4857C66.3376 51.4857 65.4147 50.4448 65.3765 50.3893C65.3603 50.3724 65.3476 50.3524 65.3393 50.3305C65.3311 50.3086 65.3273 50.2852 65.3283 50.2618C65.3293 50.2384 65.335 50.2155 65.3451 50.1944C65.3552 50.1732 65.3694 50.1543 65.387 50.1389C65.4046 50.1234 65.4251 50.1117 65.4474 50.1043C65.4696 50.097 65.4931 50.0943 65.5164 50.0963C65.5398 50.0983 65.5625 50.105 65.5831 50.116C65.6038 50.127 65.622 50.1421 65.6367 50.1603C65.6367 50.1603 66.4972 51.1388 67.3022 51.1388C67.9649 51.1388 68.9677 49.848 69.3008 49.3518C69.3131 49.3326 69.3291 49.3161 69.3479 49.3032C69.3667 49.2903 69.3879 49.2814 69.4102 49.2768C69.4325 49.2723 69.4555 49.2723 69.4779 49.2768C69.5002 49.2814 69.5214 49.2904 69.5402 49.3033C69.5782 49.3287 69.6047 49.3681 69.6138 49.413C69.6229 49.4578 69.6139 49.5044 69.5888 49.5427C69.4569 49.7404 68.2668 51.4857 67.3022 51.4857Z" fill="#263238"/>
<path d="M66.1774 54.6965C65.9657 54.6965 65.7506 54.6965 65.5355 54.6757C63.3981 54.5335 61.8055 51.9381 61.7361 51.8271C61.7242 51.8075 61.7164 51.7857 61.7129 51.7631C61.7095 51.7405 61.7105 51.7174 61.716 51.6951C61.7215 51.6729 61.7313 51.652 61.7448 51.6335C61.7584 51.6151 61.7755 51.5995 61.7951 51.5877C61.8147 51.5758 61.8364 51.5679 61.859 51.5645C61.8817 51.561 61.9048 51.5621 61.927 51.5676C61.9492 51.573 61.9702 51.5828 61.9886 51.5964C62.0071 51.61 62.0226 51.627 62.0345 51.6466C62.0345 51.6744 63.6028 54.1969 65.5597 54.3288C66.9832 54.377 68.4059 54.2157 69.7824 53.8499C69.8284 53.837 69.8777 53.843 69.9193 53.8664C69.961 53.8898 69.9916 53.9288 70.0045 53.9748C70.0174 54.0208 70.0115 54.0701 69.988 54.1117C69.9646 54.1534 69.9256 54.184 69.8796 54.1969C68.6701 54.5119 67.427 54.6796 66.1774 54.6965Z" fill="#263238"/>
<path d="M69.1493 39.9291C69.1493 39.9291 71.5781 38.1318 72.5323 37.5003C73.4865 36.8688 76.6093 38.052 76.6093 38.052C76.6093 38.052 74.2603 36.7405 73.0181 36.5323C71.7759 36.3241 69.2187 38.1214 69.0105 38.9611C68.8023 39.8008 68.1882 39.5822 69.1493 39.9291Z" fill="#263238"/>
<path d="M69.1737 40.0809C69.1542 40.0842 69.1342 40.0842 69.1147 40.0809C68.6567 39.9178 68.5214 39.8692 68.4797 39.7339C68.4721 39.6799 68.4783 39.6248 68.4977 39.5738C68.5171 39.5229 68.5491 39.4777 68.5908 39.4424C68.7266 39.2971 68.8223 39.1189 68.8683 38.9254C69.0939 38.0198 71.7135 36.1496 73.0702 36.3786C74.3297 36.5868 76.6232 37.8637 76.7204 37.9157C76.7583 37.9377 76.7867 37.9728 76.8001 38.0145C76.8136 38.0562 76.8111 38.1013 76.7932 38.1413C76.775 38.1812 76.7423 38.2127 76.7017 38.2294C76.6611 38.2461 76.6157 38.2469 76.5746 38.2315C75.7315 37.9123 73.386 37.1906 72.6538 37.6624C71.6997 38.2731 69.3021 40.0566 69.2778 40.0739C69.2443 40.0855 69.2084 40.0879 69.1737 40.0809ZM68.8788 39.6124L69.1459 39.7131C69.5588 39.4043 71.599 37.8984 72.463 37.3432C72.9592 37.024 73.9064 37.1177 74.7808 37.3085C74.218 37.0349 73.6253 36.8276 73.0147 36.6909C71.8662 36.5035 69.3888 38.2454 69.198 38.9809C69.1487 39.2199 69.0387 39.4421 68.8788 39.6263V39.6124Z" fill="#263238"/>
<path d="M64.1989 40.2466C64.072 39.9457 63.8613 39.6875 63.5919 39.503C63.3224 39.3185 63.0056 39.2152 62.6792 39.2056C61.5064 39.1363 56.3226 40.5207 57.2213 40.5207C58.1199 40.5207 61.8499 40.4513 62.818 40.4513C63.2875 40.4804 63.758 40.4107 64.1989 40.2466Z" fill="#263238"/>
<path d="M57.2388 40.6956C57.1904 40.7024 57.1411 40.6956 57.0964 40.676C57.0517 40.6563 57.0133 40.6247 56.9855 40.5846C56.9694 40.5553 56.9609 40.5225 56.9609 40.4892C56.9609 40.4558 56.9694 40.423 56.9855 40.3937C57.1971 40.0468 61.739 38.9746 62.7001 39.0336C63.0605 39.0433 63.4102 39.1572 63.7071 39.3617C64.0039 39.5662 64.2351 39.8523 64.3726 40.1855C64.3867 40.2254 64.3861 40.2691 64.3708 40.3085C64.3555 40.348 64.3266 40.3807 64.2893 40.4007C63.8231 40.5757 63.3258 40.6525 62.8285 40.6262C62.3358 40.6262 61.1284 40.6262 59.9417 40.6609C58.755 40.6956 57.6794 40.6956 57.2388 40.6956ZM62.5961 39.3806C61.7217 39.3806 59.2859 39.967 58.0264 40.3417L59.9452 40.3139C61.1318 40.2966 62.3428 40.2792 62.8355 40.2792C63.2202 40.2877 63.6043 40.2434 63.977 40.1474C63.845 39.9187 63.6562 39.7279 63.4289 39.5935C63.2015 39.4592 62.9433 39.3858 62.6793 39.3806H62.5961Z" fill="#263238"/>
<path d="M76.0633 44.1953C75.0206 44.4318 73.9542 44.5482 72.8851 44.5423C71.4972 44.4729 70.2585 44.0565 70.8032 44.6776C71.348 45.2987 72.4617 45.8538 74.1862 45.5069C75.9107 45.1599 76.5456 44.8164 76.0633 44.1953Z" fill="#263238"/>
<path d="M63.5543 44.1953C62.5116 44.4318 61.4452 44.5482 60.376 44.5423C58.9881 44.4729 57.7529 44.0565 58.2942 44.6776C58.8355 45.2987 59.9527 45.8538 61.6807 45.5069C63.4086 45.1599 64.0262 44.8164 63.5543 44.1953Z" fill="#263238"/>
<path d="M40.6016 84.0196C40.6016 84.0196 42.6834 72.5694 43.6272 71.4487C44.5709 70.328 54.8761 61.9 55.4417 61.3344C56.0072 60.7688 60.0738 54.6205 60.2646 55.3769C60.4554 56.1333 59.7927 59.4434 58.561 61.2373C57.3292 63.0311 55.6325 65.2101 55.6325 65.2101C55.6325 65.2101 61.9821 66.8166 62.3291 67.1948C62.6761 67.573 64.862 72.278 64.9765 72.8644C65.1778 73.8775 64.8863 74.9636 64.0327 75.0399C63.2555 75.1058 58.1723 72.4862 58.1723 72.4862L54.1197 73.0413C54.1197 73.0413 51.1912 76.6325 49.2031 77.2952C48.3114 77.6214 47.3947 77.8743 46.462 78.0516L46.5591 85.0466L40.6016 84.0196Z" fill="white"/>
<path d="M46.5439 85.2305H46.5127L40.5586 84.1896C40.5124 84.1811 40.4713 84.155 40.4441 84.1167C40.4191 84.0789 40.4092 84.0331 40.4164 83.9883C40.5031 83.5199 42.5156 72.4931 43.4801 71.3377C44.1116 70.5778 48.7125 66.7403 52.0712 63.9402C53.7714 62.521 55.1177 61.4003 55.305 61.2095C55.4924 61.0187 56.0233 60.2761 56.6582 59.3913C59.1287 55.9494 59.8608 55.075 60.2251 55.1444C60.272 55.1542 60.3151 55.1774 60.349 55.2113C60.3829 55.2452 60.4062 55.2883 60.416 55.3352C60.6207 56.1541 59.9371 59.5163 58.6811 61.3379C57.6818 62.7917 56.3633 64.5162 55.9053 65.106C57.3834 65.4842 62.0745 66.7056 62.4423 67.0699C62.8101 67.4342 65.0134 72.2155 65.1348 72.8331C65.2162 73.1576 65.232 73.495 65.1813 73.8257C65.1307 74.1563 65.0146 74.4736 64.8399 74.7588C64.7456 74.8873 64.6251 74.9943 64.4863 75.0727C64.3475 75.151 64.1936 75.199 64.0349 75.2134C63.2438 75.2828 58.8303 73.0344 58.1363 72.6666L54.1947 73.2113C53.8096 73.6797 51.1448 76.8372 49.2434 77.4687C48.3871 77.7715 47.512 78.0183 46.6237 78.2078L46.7174 85.0536C46.717 85.0792 46.7113 85.1045 46.7005 85.1278C46.6897 85.1511 46.6742 85.1719 46.655 85.1889C46.6233 85.2142 46.5844 85.2288 46.5439 85.2305ZM40.8015 83.8739L46.3531 84.835L46.2594 78.0482C46.2598 78.0057 46.2755 77.9649 46.3035 77.933C46.3315 77.9012 46.3701 77.8805 46.4121 77.8747C47.3342 77.6987 48.2405 77.4481 49.1219 77.1252C51.0338 76.4868 53.9275 72.9615 53.9553 72.9268C53.9835 72.8932 54.023 72.871 54.0663 72.8644L58.1502 72.3127C58.1847 72.3061 58.2205 72.3123 58.2508 72.33C60.2008 73.3328 63.4971 74.915 64.0175 74.8629C64.1282 74.8531 64.2354 74.8195 64.3318 74.7644C64.4282 74.7093 64.5116 74.634 64.5762 74.5437C64.7217 74.2979 64.8172 74.0257 64.8571 73.7429C64.897 73.46 64.8805 73.172 64.8087 72.8956C64.6837 72.271 62.5221 67.625 62.2098 67.3128C61.9149 67.0525 57.9837 65.9839 55.5791 65.3732C55.5513 65.366 55.5258 65.352 55.5047 65.3325C55.4837 65.313 55.4678 65.2885 55.4585 65.2613C55.4492 65.2342 55.4468 65.2051 55.4515 65.1768C55.4562 65.1485 55.4679 65.1218 55.4855 65.0991C55.4855 65.0748 57.196 62.9062 58.407 61.1366C59.6179 59.3671 60.187 56.3935 60.1037 55.533C59.5763 55.9216 57.883 58.2845 56.9427 59.5926C56.2731 60.5259 55.7457 61.2615 55.5548 61.4524C55.364 61.6432 54.0698 62.7223 52.2968 64.2039C49.1358 66.8374 44.3615 70.8207 43.7473 71.5563C43.0083 72.441 41.3914 80.5845 40.8015 83.8739Z" fill="#263238"/>
<path d="M64.9699 73.0435C64.9416 73.0442 64.9136 73.0376 64.8887 73.0242C64.8637 73.0108 64.8427 72.9912 64.8277 72.9672C63.7278 71.3468 61.8957 68.7029 61.6633 68.519C61.4308 68.3351 58.4989 67.8944 55.8931 67.544C55.8471 67.5375 55.8055 67.5131 55.7775 67.476C55.7495 67.4389 55.7374 67.3922 55.7439 67.3462C55.7503 67.3002 55.7748 67.2586 55.8119 67.2306C55.849 67.2027 55.8956 67.1906 55.9417 67.197C57.2463 67.374 61.5349 67.9673 61.8819 68.2379C62.2288 68.5086 64.8207 72.3288 65.1122 72.7486C65.1253 72.7674 65.1346 72.7887 65.1394 72.8112C65.1443 72.8337 65.1446 72.8569 65.1404 72.8795C65.1362 72.9021 65.1276 72.9236 65.115 72.9428C65.1024 72.9621 65.0861 72.9786 65.0671 72.9915C65.0403 73.0177 65.0066 73.0357 64.9699 73.0435Z" fill="#263238"/>
<path d="M64.7302 74.4611C64.7049 74.4611 64.68 74.4555 64.6572 74.4447C64.6344 74.4339 64.6143 74.4182 64.5983 74.3986C63.8558 73.5416 62.3708 71.8518 62.0619 71.5916C61.8121 71.3904 58.8837 70.6409 56.2501 70.0372C56.2056 70.0265 56.1671 69.9986 56.143 69.9596C56.119 69.9205 56.1113 69.8736 56.1217 69.829C56.1266 69.8067 56.1359 69.7856 56.1491 69.767C56.1623 69.7484 56.1792 69.7326 56.1986 69.7206C56.218 69.7086 56.2397 69.7007 56.2622 69.6973C56.2848 69.6938 56.3078 69.695 56.3299 69.7006C57.2494 69.9088 61.8815 70.9809 62.284 71.3279C62.6865 71.6749 64.7718 74.069 64.862 74.1731C64.8771 74.1901 64.8886 74.2099 64.896 74.2314C64.9033 74.2528 64.9062 74.2756 64.9046 74.2982C64.903 74.3208 64.8968 74.3429 64.8865 74.3631C64.8763 74.3834 64.862 74.4013 64.8447 74.416C64.8137 74.4451 64.7727 74.4612 64.7302 74.4611Z" fill="#263238"/>
<path d="M64.8601 118.089C64.8601 118.089 57.4348 116.701 57.1399 116.604C56.845 116.506 51.5883 114.921 50.8943 114.622C50.2004 114.324 41.7863 112.842 41.3907 113.436C40.9952 114.029 40.5996 117.495 40.499 117.79C40.3984 118.085 39.6073 119.473 39.805 120.268C39.9119 120.989 39.9119 121.722 39.805 122.443C39.805 122.443 39.7044 127.096 40.8911 127.197C42.0777 127.297 43.1707 122.839 43.1707 122.839C43.1707 122.839 44.8535 123.831 48.3163 124.029C51.7791 124.227 55.1482 122.544 55.1482 122.544L64.3639 124.737L64.8601 118.089Z" fill="white"/>
<path d="M40.9395 127.36H40.8875C39.6036 127.253 39.6245 123.235 39.6383 122.43C39.7433 121.723 39.7433 121.006 39.6383 120.299C39.4649 119.605 39.9472 118.564 40.2074 118.02C40.2664 117.888 40.3149 117.784 40.3358 117.728C40.3566 117.673 40.4225 117.246 40.485 116.816C40.7278 115.216 40.9673 113.745 41.2448 113.329C41.7653 112.551 50.4535 114.234 50.9601 114.453C51.4667 114.671 54.7248 115.674 56.2827 116.153L57.1814 116.427C57.4069 116.5 61.9106 117.354 64.8807 117.909C64.923 117.916 64.9609 117.939 64.9872 117.973C65.0135 118.007 65.0262 118.05 65.023 118.093L64.5372 124.727C64.5359 124.752 64.529 124.777 64.517 124.799C64.505 124.821 64.4882 124.84 64.4678 124.855C64.4479 124.87 64.4246 124.881 64.3999 124.886C64.3753 124.89 64.3498 124.89 64.3256 124.883L55.1793 122.721C54.7144 122.94 51.543 124.38 48.3162 124.196C45.4849 124.033 43.8402 123.356 43.2955 123.089C43.0179 124.161 42.0949 127.36 40.9395 127.36ZM42.1053 113.454C41.9108 113.433 41.7143 113.461 41.5328 113.533C41.283 113.908 40.9915 115.834 40.8389 116.868C40.7521 117.454 40.707 117.739 40.6758 117.836C40.6446 117.933 40.5995 118.016 40.5301 118.165C40.308 118.644 39.8361 119.647 39.9853 120.216C40.0977 120.959 40.0977 121.715 39.9853 122.458C39.9472 124.303 40.2109 126.968 40.9187 127.013C41.682 127.062 42.605 124.456 43.0005 122.791C43.0075 122.764 43.0201 122.74 43.0374 122.719C43.0548 122.698 43.0766 122.681 43.1011 122.669C43.1254 122.657 43.1522 122.651 43.1792 122.651C43.2063 122.651 43.233 122.657 43.2573 122.669C43.2573 122.669 44.954 123.641 48.3266 123.835C51.6992 124.029 55.0371 122.385 55.0718 122.367C55.109 122.355 55.1491 122.355 55.1863 122.367L64.2076 124.498L64.676 118.224C63.4269 117.992 57.3687 116.857 57.0842 116.76L56.1925 116.486C54.5062 115.969 51.373 115.008 50.8317 114.776C50.1551 114.481 44.0623 113.454 42.1053 113.454Z" fill="#263238"/>
<path d="M39.145 82L49.0997 83.8216L48.7284 90.0429C48.7284 90.0429 50.9317 91.0838 51.6013 97.2287C52.271 103.374 54.1898 117.607 53.7109 118.661C53.2321 119.716 50.262 124.317 43.3607 124.605C36.4594 124.893 32.7225 118.568 32.0528 116.552C31.3831 114.536 34.9292 101.351 35.1201 100.202C35.3109 99.0538 36.2685 91.1809 37.1325 89.852C37.665 89.0308 38.3097 88.288 39.0478 87.6453L39.145 82Z" fill="#2F5EAC"/>
<path d="M42.9321 124.787C36.0655 124.787 32.5228 118.371 31.9191 116.608C31.3778 114.988 33.3833 106.782 34.459 102.383C34.7365 101.244 34.9378 100.422 34.9794 100.179C35.0211 99.9363 35.0696 99.572 35.146 99.0307C35.5138 96.3937 36.284 90.9046 37.0162 89.7665C37.5428 88.9522 38.1791 88.2143 38.9072 87.5736L39.0009 81.9978C39.0008 81.9725 39.0064 81.9476 39.0172 81.9248C39.028 81.902 39.0438 81.8819 39.0633 81.8659C39.0832 81.8503 39.1062 81.8391 39.1307 81.8332C39.1552 81.8272 39.1808 81.8265 39.2056 81.8312L49.1707 83.6494C49.2129 83.657 49.2509 83.68 49.2772 83.714C49.3034 83.7479 49.3162 83.7904 49.3129 83.8333L48.9382 89.9539C49.3997 90.2523 51.2074 91.7478 51.8042 97.2195C51.9708 98.7532 52.2206 100.821 52.4982 103.011C53.5148 111.449 54.2643 117.969 53.9138 118.742C53.8861 118.798 51.2248 124.46 43.4109 124.783L42.9321 124.787ZM39.3444 82.2025L39.2507 87.65C39.2507 87.6752 39.2451 87.7001 39.2343 87.7229C39.2235 87.7458 39.2078 87.7659 39.1882 87.7818C38.4645 88.4133 37.8316 89.1419 37.3076 89.9469C36.6137 91.0191 35.826 96.6644 35.4895 99.0724C35.4131 99.6171 35.3542 100.027 35.3195 100.231C35.2778 100.488 35.0766 101.314 34.7955 102.455C33.8032 106.518 31.7387 114.971 32.2487 116.501C32.8317 118.236 36.4298 124.724 43.3831 124.429C49.6911 124.169 52.8833 120.127 53.5842 118.59C53.9312 117.844 52.8902 109.291 52.1408 103.045C51.8771 100.852 51.6273 98.7844 51.4468 97.2508C50.7945 91.2828 48.6884 90.2107 48.671 90.2002C48.6405 90.1848 48.615 90.1609 48.5978 90.1314C48.5805 90.1018 48.5722 90.0679 48.5739 90.0337L48.9486 83.9582L39.3444 82.2025Z" fill="#263238"/>
<path d="M47.0353 89.4521C46.4715 89.4497 45.9084 89.4137 45.349 89.3445C45.3035 89.3393 45.2619 89.3163 45.2333 89.2805C45.2047 89.2448 45.1914 89.1992 45.1963 89.1537C45.2024 89.1079 45.2261 89.0663 45.2624 89.0378C45.2987 89.0093 45.3447 88.9961 45.3906 89.001C45.9364 89.0675 46.4855 89.1022 47.0353 89.1051C47.0813 89.1051 47.1254 89.1234 47.1579 89.1559C47.1905 89.1885 47.2088 89.2326 47.2088 89.2786C47.2088 89.3246 47.1905 89.3687 47.1579 89.4013C47.1254 89.4338 47.0813 89.4521 47.0353 89.4521Z" fill="#263238"/>
<path d="M43.0454 88.9582H43.0072C41.6585 88.6592 40.3285 88.2815 39.024 87.8271C38.9819 87.8105 38.948 87.7782 38.9294 87.7371C38.9109 87.6959 38.909 87.6491 38.9244 87.6067C38.9398 87.5642 38.9711 87.5294 39.0117 87.5097C39.0523 87.4899 39.099 87.4868 39.1419 87.5009C40.4315 87.9505 41.7465 88.3235 43.0801 88.6182C43.1025 88.6231 43.1236 88.6324 43.1424 88.6456C43.1612 88.6587 43.1771 88.6754 43.1894 88.6948C43.2016 88.7142 43.21 88.7357 43.2138 88.7583C43.2177 88.7809 43.217 88.804 43.2119 88.8264C43.2033 88.864 43.1821 88.8975 43.1518 88.9215C43.1215 88.9455 43.084 88.9584 43.0454 88.9582Z" fill="#263238"/>
<path d="M93.9682 85.1203L92.9794 110.661C92.9794 110.661 91.8899 110.762 91.4943 111.254C91.2308 111.596 90.9986 111.961 90.8004 112.344C90.8004 112.344 80.804 112.739 76.0505 114.127C73.3222 114.903 70.6715 115.93 68.1325 117.195L63.7745 117.101L62.8828 128.582L68.7259 128.78C68.7259 128.78 71.5953 130.463 84.6624 131.653C97.7294 132.843 103.77 133.138 105.155 131.552C106.539 129.967 107.136 127.493 107.334 126.209C107.531 124.925 109.908 117 109.908 105.515C109.908 94.0306 99.1173 77.4106 96.7406 73.6389C94.3638 69.8673 91.8829 70.1692 90.207 70.5717" fill="#2F5EAC"/>
<path d="M99.6026 132.8C96.2889 132.8 91.4382 132.432 84.6376 131.815C72.3338 130.694 69.0653 129.153 68.6767 128.942L62.8788 128.744C62.8551 128.744 62.8316 128.739 62.8099 128.73C62.7882 128.72 62.7688 128.706 62.753 128.688C62.7372 128.67 62.7254 128.649 62.7184 128.627C62.7114 128.604 62.7093 128.58 62.7122 128.556L63.5901 117.092C63.5928 117.048 63.6128 117.006 63.6459 116.976C63.679 116.947 63.7225 116.931 63.767 116.933L68.0799 117.03C70.6193 115.773 73.2671 114.749 75.991 113.97C80.453 112.669 89.6201 112.235 90.6818 112.183C90.8729 111.817 91.0958 111.469 91.348 111.142C91.695 110.708 92.4722 110.552 92.8019 110.503L93.7838 85.1084C93.7837 85.0853 93.7884 85.0624 93.7977 85.0412C93.8069 85.0201 93.8204 85.0011 93.8374 84.9854C93.8543 84.9697 93.8744 84.9578 93.8962 84.9503C93.9181 84.9428 93.9412 84.9399 93.9642 84.9418C93.987 84.9427 94.0094 84.9481 94.0301 84.9576C94.0508 84.9672 94.0694 84.9807 94.0849 84.9975C94.1004 85.0142 94.1124 85.0339 94.1203 85.0553C94.1281 85.0767 94.1317 85.0994 94.1308 85.1222L93.1419 110.663C93.1404 110.705 93.1238 110.745 93.0951 110.776C93.0664 110.806 93.0275 110.825 92.9858 110.83C92.7012 110.854 91.9067 111 91.6187 111.357C91.3643 111.69 91.1391 112.044 90.9455 112.415C90.9321 112.444 90.911 112.468 90.8847 112.485C90.8583 112.502 90.8278 112.512 90.7963 112.512C90.6992 112.512 80.7653 112.922 76.0881 114.289C73.3722 115.066 70.7324 116.088 68.2014 117.342C68.1744 117.356 68.1448 117.363 68.1146 117.363L63.9232 117.269L63.0592 128.407L68.7184 128.598C68.7475 128.6 68.7759 128.609 68.8016 128.622C68.8294 128.622 71.8342 130.305 84.6688 131.471C97.6803 132.654 103.704 132.928 105.015 131.429C106.511 129.722 107.028 126.974 107.153 126.173C107.184 125.954 107.274 125.579 107.406 125.007C108.943 118.621 109.721 112.075 109.724 105.507C109.724 98.1719 105.39 87.617 96.8476 74.137L96.5839 73.7241C94.1169 69.8172 91.4938 70.4348 90.2377 70.7297C90.1927 70.7403 90.1453 70.7327 90.1057 70.7087C90.0661 70.6847 90.0375 70.6462 90.0261 70.6014C90.0209 70.579 90.0203 70.5559 90.0242 70.5333C90.028 70.5107 90.0363 70.4891 90.0486 70.4698C90.0609 70.4504 90.0768 70.4337 90.0956 70.4205C90.1144 70.4074 90.1355 70.3981 90.1579 70.3932C92.1947 69.9143 94.5888 69.9143 96.8788 73.5368L97.139 73.9531C105.72 87.4851 110.071 98.106 110.071 105.507C110.067 112.102 109.286 118.674 107.746 125.087C107.618 125.628 107.527 126.02 107.496 126.225C107.368 127.051 106.833 129.878 105.276 131.658C104.578 132.453 102.812 132.8 99.6026 132.8Z" fill="#263238"/>
<path d="M92.9701 110.837C92.9397 110.837 92.9097 110.83 92.8834 110.814C92.8571 110.799 92.8355 110.777 92.8209 110.75C92.8008 110.716 92.793 110.676 92.7987 110.637C92.8044 110.598 92.8232 110.562 92.8522 110.535L98.5946 105.192C98.6104 105.176 98.6293 105.163 98.6502 105.154C98.671 105.145 98.6934 105.141 98.716 105.141C98.7386 105.141 98.761 105.145 98.7819 105.154C98.8027 105.163 98.8216 105.176 98.8375 105.192C98.8537 105.208 98.8666 105.227 98.8754 105.248C98.8842 105.269 98.8888 105.292 98.8888 105.315C98.8888 105.338 98.8842 105.36 98.8754 105.382C98.8666 105.403 98.8537 105.422 98.8375 105.438L93.6329 110.296L99.0075 108.734C99.0535 108.721 99.1027 108.727 99.1444 108.751C99.186 108.774 99.2167 108.813 99.2295 108.859C99.2424 108.905 99.2365 108.954 99.2131 108.996C99.1897 109.038 99.1506 109.068 99.1046 109.081L93.0291 110.844L92.9701 110.837Z" fill="#263238"/>
<path d="M100.932 108.527C100.886 108.533 100.839 108.521 100.803 108.492C100.766 108.464 100.742 108.422 100.736 108.376C100.73 108.33 100.742 108.284 100.771 108.247C100.799 108.21 100.841 108.186 100.887 108.18L102.806 107.625C102.827 107.618 102.85 107.616 102.873 107.618C102.896 107.62 102.918 107.627 102.938 107.638C102.958 107.649 102.976 107.664 102.99 107.682C103.004 107.7 103.015 107.721 103.021 107.743C103.034 107.787 103.028 107.835 103.006 107.875C102.984 107.915 102.947 107.945 102.903 107.958L100.98 108.513C100.966 108.522 100.949 108.526 100.932 108.527Z" fill="#263238"/>
<path d="M99.7015 114.01H99.6391C97.12 113.038 90.8433 112.538 90.7773 112.535C90.7546 112.533 90.7324 112.527 90.712 112.517C90.6917 112.506 90.6736 112.492 90.6587 112.474C90.6439 112.457 90.6327 112.437 90.6256 112.415C90.6186 112.393 90.6159 112.37 90.6177 112.348C90.6196 112.325 90.6259 112.303 90.6363 112.282C90.6467 112.262 90.661 112.244 90.6784 112.229C90.6958 112.214 90.7159 112.203 90.7377 112.196C90.7594 112.189 90.7823 112.186 90.8051 112.188C91.0653 112.209 97.1964 112.698 99.764 113.684C99.7868 113.688 99.8085 113.696 99.828 113.709C99.8475 113.721 99.8643 113.737 99.8775 113.756C99.8907 113.775 99.9001 113.797 99.905 113.819C99.9099 113.842 99.9103 113.865 99.9062 113.888C99.9021 113.911 99.8936 113.933 99.8811 113.952C99.8686 113.972 99.8524 113.989 99.8333 114.002C99.8143 114.015 99.7929 114.024 99.7703 114.029C99.7477 114.034 99.7243 114.035 99.7015 114.03V114.01Z" fill="#263238"/>
<path d="M101.463 119.152C101.436 119.152 101.409 119.145 101.385 119.133C101.361 119.121 101.34 119.104 101.324 119.083C101.064 118.736 100.779 118.42 100.477 118.104C100.449 118.07 100.435 118.027 100.438 117.984C100.44 117.94 100.459 117.899 100.491 117.869C100.523 117.838 100.564 117.821 100.608 117.82C100.652 117.82 100.694 117.836 100.727 117.865C101.034 118.185 101.325 118.521 101.598 118.871C101.626 118.907 101.639 118.953 101.634 118.998C101.629 119.044 101.606 119.085 101.57 119.114C101.539 119.138 101.502 119.151 101.463 119.152Z" fill="#263238"/>
<path d="M99.4194 117.039C99.3793 117.038 99.3405 117.024 99.3083 117C97.5465 115.574 95.5141 114.518 93.3334 113.898C93.3106 113.893 93.2891 113.883 93.2701 113.87C93.251 113.856 93.2348 113.839 93.2224 113.819C93.21 113.8 93.2017 113.777 93.1978 113.754C93.1939 113.731 93.1946 113.708 93.1998 113.685C93.2051 113.662 93.2148 113.641 93.2283 113.622C93.2419 113.603 93.2591 113.586 93.2789 113.574C93.2987 113.562 93.3208 113.553 93.3438 113.549C93.3669 113.545 93.3904 113.546 93.4132 113.551C95.6459 114.182 97.727 115.26 99.5304 116.719C99.5586 116.742 99.579 116.773 99.5888 116.808C99.5986 116.842 99.5973 116.879 99.5851 116.913C99.5729 116.947 99.5503 116.977 99.5206 116.997C99.4909 117.018 99.4555 117.029 99.4194 117.028V117.039Z" fill="#263238"/>
<path d="M68.1084 128.061C68.0623 128.061 68.0182 128.042 67.9857 128.01C67.9531 127.977 67.9349 127.933 67.9349 127.887L67.8516 118.286C67.8511 118.264 67.8552 118.241 67.8635 118.22C67.8718 118.198 67.8842 118.179 67.8999 118.163C67.9157 118.146 67.9346 118.133 67.9555 118.124C67.9764 118.115 67.9988 118.11 68.0216 118.109C68.0676 118.109 68.1118 118.128 68.1443 118.16C68.1768 118.193 68.1951 118.237 68.1951 118.283L68.2957 127.884C68.2957 127.93 68.2776 127.974 68.2451 128.008C68.2127 128.041 68.1686 128.06 68.1222 128.061H68.1084Z" fill="#263238"/>
<path d="M67.4075 125.683H63.2438C63.1978 125.683 63.1537 125.665 63.1211 125.632C63.0886 125.6 63.0703 125.555 63.0703 125.509C63.0703 125.463 63.0886 125.419 63.1211 125.387C63.1537 125.354 63.1978 125.336 63.2438 125.336H67.4075C67.4535 125.336 67.4976 125.354 67.5302 125.387C67.5627 125.419 67.581 125.463 67.581 125.509C67.5801 125.555 67.5615 125.599 67.5292 125.631C67.4968 125.663 67.4532 125.682 67.4075 125.683Z" fill="#263238"/>
<path d="M64.2441 120.038C64.1999 120.038 64.1572 120.021 64.125 119.991C64.0927 119.961 64.0733 119.919 64.0706 119.875C64.0692 119.853 64.0724 119.83 64.0798 119.808C64.0873 119.787 64.099 119.767 64.1142 119.751C64.1294 119.734 64.1478 119.72 64.1683 119.711C64.1888 119.701 64.2111 119.696 64.2337 119.695L65.9165 119.594C65.9393 119.593 65.9622 119.596 65.9838 119.603C66.0054 119.611 66.0253 119.622 66.0424 119.637C66.0594 119.653 66.0734 119.671 66.0833 119.692C66.0933 119.712 66.0991 119.734 66.1004 119.757C66.1024 119.803 66.0865 119.848 66.056 119.882C66.0256 119.916 65.9831 119.937 65.9374 119.941L64.2545 120.038H64.2441Z" fill="#263238"/>
</svg>
