<svg width="1920" height="1025" viewBox="0 0 1920 1025" fill="none" xmlns="http://www.w3.org/2000/svg">
<path d="M-1562.55 885.255C-1562.55 364.883 -1986.81 833.667 -922.054 368.945C142.703 -95.7764 3214.45 364.883 3214.45 885.255C3214.45 1405.63 1082.89 584.237 -93.0818 788.944C-1269.05 993.652 -1562.55 1405.63 -1562.55 885.255Z" fill="#2F5EAC" fill-opacity="0.13"/>
<path d="M-708.007 245.731C-708.007 751.773 -70.0132 1162 716.993 1162C1504 1162 2141.99 751.773 2141.99 245.731C2141.99 -260.311 1301.99 538.46 408.493 339.39C-485.007 140.32 -708.007 -260.311 -708.007 245.731Z" fill="#2F5EAC" fill-opacity="0.57"/>
<path d="M2308 389.233C2308 909.356 1670.01 1331 883 1331C95.9943 1331 -542 909.356 -542 389.233C-542 -130.891 245.799 440.252 1230.36 414.742C2214.92 389.233 2308 -130.891 2308 389.233Z" fill="#2F5EAC"/>
</svg>
