<svg width="145" height="82" viewBox="0 0 145 82" fill="none" xmlns="http://www.w3.org/2000/svg">
<path d="M144.359 1.00628C144.353 0.828527 144.301 0.655274 144.209 0.503029C144.118 0.350784 143.988 0.224619 143.834 0.136569C143.679 0.0485182 143.505 0.00151509 143.327 3.6019e-05C143.149 -0.00144306 142.974 0.0426529 142.818 0.128121L128.094 8.72572C127.942 8.81892 127.817 8.94935 127.731 9.1046C127.644 9.25984 127.598 9.43471 127.598 9.61255C127.598 9.79038 127.644 9.96525 127.731 10.1205C127.817 10.2757 127.942 10.4062 128.094 10.4994L133.463 13.5642L114.474 45.3965L95.8138 39.7041C95.2979 39.5493 94.7453 39.5704 94.2426 39.7639C93.74 39.9574 93.3159 40.3124 93.037 40.7732L72.2112 75.2711L49.7159 58.4786C49.404 58.2454 49.0407 58.0906 48.6565 58.0272C48.2724 57.9637 47.8786 57.9936 47.5083 58.1141L1.69151 73.0393C1.38626 73.1367 1.10327 73.2934 0.858835 73.5006C0.614403 73.7077 0.413357 73.9612 0.267267 74.2463C0.121177 74.5315 0.0329277 74.8427 0.00760212 75.1621C-0.0177234 75.4815 0.0203743 75.8028 0.119701 76.1074C0.219027 76.412 0.377621 76.6939 0.586353 76.937C0.795086 77.1801 1.04983 77.3795 1.33594 77.5237C1.62204 77.668 1.93384 77.7542 2.2534 77.7774C2.57295 77.8007 2.89395 77.7605 3.19791 77.6592L47.8103 63.1366L71.4441 80.7796C71.8642 81.0931 72.3743 81.2623 72.8985 81.262C73.0546 81.2627 73.2105 81.2476 73.3636 81.2169C73.6964 81.1519 74.012 81.018 74.29 80.8237C74.568 80.6294 74.8022 80.3791 74.9776 80.0889L96.213 44.9175L114.883 50.6099C115.402 50.7683 115.959 50.7485 116.466 50.5535C116.972 50.3584 117.399 49.9995 117.677 49.5339L137.691 15.9835L142.898 18.9651C143.054 19.0487 143.23 19.0907 143.408 19.0872C143.586 19.0837 143.76 19.0347 143.913 18.9449C144.066 18.8551 144.194 18.7275 144.285 18.5743C144.375 18.4211 144.424 18.2473 144.428 18.0696L144.359 1.00628Z" fill="#F17738"/>
</svg>
