<svg width="509" height="480" viewBox="0 0 509 480" fill="none" xmlns="http://www.w3.org/2000/svg">
<path d="M435.756 113.304C435.349 112.638 434.929 111.959 434.522 111.305L185.04 11.6016C176.289 14.73 167.788 18.5167 159.608 22.9293L435.756 113.304Z" fill="#FCCD5D"/>
<path d="M439.2 119.158L438.509 117.924L96.2465 77.2031C90.5333 84.3724 85.2273 91.8379 80.2051 99.5378L439.2 119.158Z" fill="#FCCD5D"/>
<path d="M444.643 129.477L76.3071 419.531C77.7262 420.172 79.1576 420.765 80.6136 421.357C90.9692 425.678 102.08 427.897 113.301 427.885L445.088 130.365L444.643 129.477Z" fill="white"/>
<path d="M427.866 101.4C426.372 99.3148 424.818 97.254 423.238 95.2304L308.702 9.58134C301.2 6.64168 293.459 4.35048 285.566 2.73287C285.566 2.73287 281.358 1.81974 274.053 1.05469L427.866 101.4Z" fill="#FCCD5D" fill-opacity="0.7"/>
<path d="M441.474 123.285C441.314 122.976 441.141 122.668 440.968 122.359L40.8577 180.146C37.0818 190.017 33.5403 199.975 30.1963 209.761L441.474 123.285Z" fill="#FCCD5D"/>
<path d="M449.781 140.756C449.521 140.151 449.275 139.522 449.016 138.93L359.43 363.115C366.656 360.341 373.639 356.973 380.309 353.046L449.781 140.756Z" fill="white"/>
<path d="M454.722 153.79C454.204 152.248 453.661 150.718 453.093 149.188L434.14 308.467C439.145 302.228 443.557 295.536 447.318 288.477L454.722 153.79Z" fill="white"/>
<path d="M443.329 126.808L442.885 125.969L6.79199 313.037C7.19287 324.025 8.93328 334.923 11.9746 345.49L443.329 126.808Z" fill="#FCCD5D"/>
<path d="M447.095 134.588C446.922 134.206 446.737 133.823 446.565 133.453L262.137 380.134C272.009 378.653 280.992 377.493 289.284 376.432L447.095 134.588Z" fill="white"/>
<path d="M73.4235 345.797H29.001V478.768H73.4235V345.797Z" fill="#263238"/>
<path opacity="0.17" d="M73.4235 345.797H29.001V478.768H73.4235V345.797Z" fill="white"/>
<path opacity="0.2" d="M73.4235 439.883C57.9892 444.022 43.0834 449.927 29.001 457.479V478.765H73.4235V439.883Z" fill="#6A6A6A"/>
<path d="M140.05 334.289H95.6274V478.761H140.05V334.289Z" fill="#94B4E9"/>
<path opacity="0.2" d="M137.89 431.555C123.73 431.534 109.593 432.698 95.6274 435.035V478.766H140.05V431.555H137.89Z" fill="#6A6A6A"/>
<path d="M206.692 300.664H162.27V478.761H206.692V300.664Z" fill="#263238"/>
<path opacity="0.17" d="M206.692 300.664H162.27V478.761H206.692V300.664Z" fill="white"/>
<path opacity="0.2" d="M206.692 435.569C193.181 434.187 178.645 432.83 162.27 432.102V478.757H206.692V435.569Z" fill="#6A6A6A"/>
<path d="M273.327 318.359H228.905V478.762H273.327V318.359Z" fill="#94B4E9"/>
<path opacity="0.2" d="M273.327 439.704C258.494 440.082 243.653 439.456 228.905 437.828V478.759H273.327V439.704Z" fill="#6A6A6A"/>
<path d="M339.962 224.555H295.539V478.762H339.962V224.555Z" fill="#263238"/>
<path opacity="0.17" d="M339.962 224.555H295.539V478.762H339.962V224.555Z" fill="white"/>
<path opacity="0.2" d="M339.962 426.219C325.57 431.491 310.689 435.319 295.539 437.645V478.761H339.962V426.219Z" fill="#6A6A6A"/>
<path d="M478.163 177.664H433.74V478.762H478.163V177.664Z" fill="#263238"/>
<path opacity="0.17" d="M478.163 177.664H433.74V478.762H478.163V177.664Z" fill="white"/>
<path opacity="0.2" d="M478.163 378.555C463.769 383.822 448.889 387.649 433.74 389.981V478.764H478.163V378.555Z" fill="#6A6A6A"/>
<path d="M406.588 188.703H362.166V478.757H406.588V188.703Z" fill="#94B4E9"/>
<path opacity="0.2" d="M362.166 417.785V478.767H406.588V399.695C392.385 405.692 377.393 411.837 362.166 417.785Z" fill="#6A6A6A"/>
<path d="M507.774 479.375H0.616979C0.453346 479.375 0.296414 479.31 0.180708 479.194C0.0650025 479.078 0 478.921 0 478.758C0 478.594 0.0650025 478.437 0.180708 478.321C0.296414 478.206 0.453346 478.141 0.616979 478.141H507.774C507.937 478.141 508.094 478.206 508.21 478.321C508.326 478.437 508.391 478.594 508.391 478.758C508.391 478.921 508.326 479.078 508.21 479.194C508.094 479.31 507.937 479.375 507.774 479.375Z" fill="#263238"/>
<path d="M135.429 144.055L154.444 172.436L191.883 168.919V176.52C191.883 176.52 156.48 188.527 152.087 189.686C147.695 190.846 126.051 175.94 126.051 175.94C126.051 175.94 123.435 154.58 135.429 144.055Z" fill="white"/>
<path d="M151.598 190.364C146.082 190.364 127.856 177.926 125.684 176.445C125.612 176.396 125.55 176.332 125.503 176.258C125.456 176.183 125.426 176.1 125.413 176.013C125.314 175.125 122.945 154.209 134.989 143.585C135.054 143.526 135.131 143.482 135.215 143.457C135.298 143.431 135.387 143.423 135.474 143.435C135.56 143.447 135.644 143.477 135.718 143.524C135.792 143.572 135.854 143.634 135.902 143.708L154.72 171.781L191.886 168.301C191.973 168.293 192.061 168.304 192.143 168.331C192.226 168.359 192.302 168.403 192.368 168.461C192.43 168.52 192.479 168.591 192.513 168.669C192.547 168.748 192.565 168.832 192.565 168.918V176.519C192.565 176.649 192.524 176.776 192.449 176.882C192.374 176.988 192.268 177.068 192.145 177.111C190.702 177.605 156.669 189.13 152.313 190.29C152.079 190.346 151.838 190.371 151.598 190.364ZM126.647 175.556C135.285 181.479 148.957 189.846 151.943 189.056C156.003 187.97 187.271 177.395 191.282 176.05V169.559L154.51 173.002C154.397 173.016 154.283 172.997 154.181 172.949C154.078 172.901 153.991 172.826 153.93 172.731L135.309 144.954C124.993 154.69 126.413 173.138 126.647 175.593V175.556Z" fill="#263238"/>
<mask id="mask0_4631_2290" style="mask-type:luminance" maskUnits="userSpaceOnUse" x="125" y="144" width="67" height="46">
<mask id="mask1_4631_2290" style="mask-type:luminance" maskUnits="userSpaceOnUse" x="125" y="144" width="67" height="46">
<path d="M135.443 144.047L154.458 172.428L191.896 168.911V176.512C191.896 176.512 156.494 188.519 152.101 189.679C147.708 190.839 126.065 175.932 126.065 175.932C126.065 175.932 123.449 154.573 135.443 144.047Z" fill="white"/>
</mask>
<g mask="url(#mask1_4631_2290)">
<path d="M151.6 190.348C146.084 190.348 127.859 177.91 125.687 176.429C125.614 176.38 125.552 176.316 125.505 176.242C125.459 176.168 125.428 176.084 125.415 175.997C125.317 175.109 122.948 154.193 134.991 143.569C135.056 143.51 135.133 143.467 135.217 143.441C135.301 143.415 135.389 143.408 135.476 143.42C135.563 143.431 135.646 143.462 135.72 143.509C135.794 143.556 135.857 143.619 135.904 143.692L154.722 171.765L191.889 168.285C191.976 168.278 192.063 168.288 192.146 168.316C192.229 168.343 192.305 168.387 192.37 168.446C192.432 168.504 192.482 168.575 192.516 168.654C192.55 168.732 192.567 168.817 192.567 168.902V176.503C192.567 176.633 192.527 176.76 192.452 176.866C192.377 176.972 192.27 177.052 192.148 177.096C190.704 177.589 156.672 189.114 152.316 190.274C152.081 190.33 151.841 190.355 151.6 190.348ZM126.649 175.541C135.287 181.464 148.959 189.83 151.946 189.04C156.005 187.954 187.274 177.379 191.284 176.034V169.544L154.512 172.987C154.4 173 154.286 172.982 154.183 172.934C154.081 172.886 153.994 172.81 153.932 172.715L135.312 144.939C124.996 154.675 126.415 173.122 126.649 175.578V175.541Z" fill="white"/>
</g>
</mask>
<g mask="url(#mask0_4631_2290)">
<path d="M169.495 173.696C171.112 171.117 150.504 181.1 149.542 180.779C148.58 180.458 151.146 176.262 149.542 174.337C147.938 172.413 145.359 178.841 143.742 174.337C142.346 170.855 140.623 167.513 138.597 164.355L130.144 150.781C124.32 161.726 126.06 175.892 126.06 175.892C126.06 175.892 147.716 190.811 152.096 189.639C155.169 188.824 173.431 182.704 184.179 179.101C176.146 179.94 162.659 181.272 160.87 181.05C158.229 180.779 167.891 176.262 169.495 173.696Z" fill="#94B4E9"/>
<path opacity="0.5" d="M169.495 173.696C171.112 171.117 150.504 181.1 149.542 180.779C148.58 180.458 151.146 176.262 149.542 174.337C147.938 172.413 145.359 178.841 143.742 174.337C142.346 170.855 140.623 167.513 138.597 164.355L130.144 150.781C124.32 161.726 126.06 175.892 126.06 175.892C126.06 175.892 147.716 190.811 152.096 189.639C155.169 188.824 173.431 182.704 184.179 179.101C176.146 179.94 162.659 181.272 160.87 181.05C158.229 180.779 167.891 176.262 169.495 173.696Z" fill="#94B4E9"/>
</g>
<path d="M187.515 177.728C187.365 177.729 187.22 177.673 187.108 177.573C186.996 177.473 186.926 177.334 186.911 177.185L186.022 169.571C186.004 169.408 186.052 169.244 186.155 169.115C186.258 168.987 186.408 168.905 186.571 168.887C186.735 168.869 186.899 168.916 187.028 169.019C187.156 169.122 187.238 169.272 187.256 169.436L188.132 177.037C188.15 177.2 188.103 177.364 188.001 177.493C187.9 177.622 187.752 177.706 187.589 177.728H187.515Z" fill="#263238"/>
<path d="M191.886 168.918L195.107 164.525L205.633 163.945C205.633 163.945 206.225 172.719 204.756 174.187C203.288 175.656 191.886 176.519 191.886 176.519V168.918Z" fill="white"/>
<path d="M191.888 177.145C191.811 177.148 191.734 177.135 191.662 177.107C191.59 177.08 191.524 177.038 191.468 176.985C191.406 176.926 191.356 176.855 191.322 176.777C191.288 176.698 191.271 176.614 191.271 176.528V168.927C191.268 168.793 191.311 168.662 191.394 168.557L194.602 164.176C194.657 164.102 194.728 164.04 194.808 163.995C194.889 163.951 194.979 163.924 195.071 163.917L205.609 163.337C205.69 163.332 205.77 163.343 205.846 163.37C205.922 163.396 205.992 163.438 206.052 163.492C206.112 163.546 206.16 163.611 206.194 163.684C206.229 163.757 206.248 163.837 206.251 163.917C206.35 165.422 206.781 173.048 205.19 174.628C203.598 176.207 193.874 176.997 191.937 177.096L191.888 177.145ZM192.505 169.124V175.862C197.12 175.479 203.462 174.628 204.326 173.752C205.19 172.876 205.251 168.113 205.054 164.608L195.429 165.139L192.505 169.124Z" fill="#263238"/>
<path d="M200.967 163.071C200.967 163.071 199.498 174.473 200.967 174.473C202.435 174.473 207.408 174.769 207.408 172.141C207.408 169.512 208.284 162.195 206.519 161.899C204.755 161.603 200.967 163.071 200.967 163.071Z" fill="white"/>
<path d="M202.112 175.103H200.977C200.845 175.1 200.715 175.068 200.596 175.011C200.476 174.954 200.371 174.871 200.286 174.769C199.151 173.536 199.965 166.132 200.36 162.985C200.378 162.876 200.423 162.773 200.493 162.686C200.562 162.6 200.652 162.533 200.755 162.492C201.162 162.331 204.765 160.974 206.641 161.258C208.517 161.541 208.369 164.96 208.122 169.895C208.122 170.784 208.035 171.574 208.035 172.141C208.04 172.454 207.98 172.765 207.859 173.054C207.738 173.343 207.559 173.603 207.332 173.819C206.16 174.979 203.766 175.103 202.112 175.103ZM201.212 173.869H201.446C202.68 173.869 205.518 173.869 206.518 172.943C206.625 172.84 206.711 172.715 206.768 172.577C206.825 172.439 206.853 172.291 206.851 172.141C206.851 171.561 206.851 170.747 206.937 169.834C207.184 165.071 207.036 162.603 206.481 162.504C204.787 162.534 203.114 162.877 201.545 163.516C201.002 167.909 200.718 172.882 201.162 173.869H201.212Z" fill="#263238"/>
<path d="M193.125 166.875C193.125 166.875 195.458 162.198 197.222 161.939C198.987 161.68 201.023 162.235 201.023 163.111C201.023 163.987 202.775 169.836 201.023 170.429C199.271 171.021 198.394 168.96 198.394 168.96L197.802 167.788C197.666 168.435 197.346 169.029 196.879 169.498C196.413 169.967 195.82 170.29 195.174 170.429" fill="white"/>
<path d="M200.354 171.099C199.796 171.052 199.263 170.852 198.812 170.521C198.362 170.19 198.011 169.741 197.799 169.223C197.234 170.105 196.35 170.733 195.331 170.975C195.25 170.995 195.166 170.998 195.084 170.985C195.002 170.972 194.923 170.943 194.852 170.899C194.781 170.856 194.719 170.799 194.67 170.731C194.621 170.664 194.586 170.588 194.566 170.507C194.547 170.426 194.544 170.341 194.557 170.259C194.57 170.177 194.599 170.098 194.642 170.027C194.686 169.956 194.743 169.894 194.81 169.845C194.878 169.796 194.954 169.761 195.035 169.742C195.562 169.633 196.047 169.375 196.432 168.998C196.817 168.622 197.086 168.144 197.207 167.619C197.227 167.49 197.287 167.371 197.379 167.278C197.472 167.186 197.591 167.125 197.72 167.104C197.849 167.083 197.981 167.104 198.097 167.164C198.213 167.223 198.308 167.318 198.367 167.434L198.947 168.606C199.033 168.791 199.663 170.136 200.835 169.754C201.217 169.63 201.489 168.606 200.65 164.46C200.531 163.991 200.453 163.512 200.415 163.029C199.969 162.725 199.464 162.518 198.933 162.42C198.402 162.322 197.856 162.336 197.33 162.461C196.331 162.634 194.603 165.275 193.629 167.101C193.593 167.174 193.543 167.239 193.483 167.293C193.422 167.347 193.351 167.388 193.274 167.414C193.197 167.441 193.116 167.452 193.035 167.447C192.954 167.441 192.875 167.42 192.802 167.385C192.659 167.308 192.551 167.18 192.5 167.026C192.45 166.872 192.46 166.704 192.53 166.558C192.95 165.719 195.109 161.622 197.071 161.252C198.45 160.968 199.884 161.233 201.069 161.992C201.229 162.115 201.36 162.271 201.451 162.451C201.543 162.63 201.594 162.827 201.6 163.029C201.6 163.165 201.711 163.72 201.81 164.263C202.451 167.471 202.896 170.433 201.18 170.975C200.913 171.062 200.634 171.103 200.354 171.099Z" fill="#263238"/>
<path d="M82.6189 210.204L83.5444 262.339L53.0039 318.792L58.5567 322.494C58.5567 322.494 102.054 275.295 103.596 270.976C105.139 266.657 114.085 227.788 114.085 227.788C114.085 227.788 117.17 215.14 111.925 208.353C106.681 201.566 89.0972 196.322 82.6189 210.204Z" fill="#263238"/>
<path d="M58.5551 323.109C58.4333 323.107 58.3143 323.073 58.2096 323.01L52.6568 319.308C52.5317 319.219 52.443 319.087 52.4067 318.938C52.3705 318.788 52.3892 318.631 52.4593 318.494L82.9257 262.188L82.0003 210.214C81.9816 210.125 81.9816 210.032 82.0003 209.943C83.0425 207.48 84.7319 205.346 86.8893 203.767C89.0467 202.187 91.5914 201.222 94.2535 200.972C101.571 200.157 109.209 203.896 112.356 207.968C117.723 214.916 114.762 227.403 114.626 227.934C114.268 229.513 105.655 266.878 104.125 271.184C102.595 275.491 60.7392 320.974 58.9623 322.912C58.8564 323.027 58.7109 323.097 58.5551 323.109ZM53.8043 318.593L58.4564 321.69C70.7959 308.301 101.793 274.183 103.015 270.765C104.52 266.532 113.392 228.033 113.479 227.65C113.479 227.514 116.428 215.199 111.43 208.733C108.555 205.032 101.238 201.441 94.4386 202.193C92.0118 202.42 89.6909 203.296 87.7194 204.729C85.7479 206.162 84.1986 208.099 83.2342 210.338L84.1597 262.324C84.1602 262.432 84.1348 262.537 84.0857 262.633L53.8043 318.593Z" fill="#263238"/>
<mask id="mask2_4631_2290" style="mask-type:luminance" maskUnits="userSpaceOnUse" x="53" y="201" width="62" height="122">
<mask id="mask3_4631_2290" style="mask-type:luminance" maskUnits="userSpaceOnUse" x="53" y="201" width="62" height="122">
<path d="M82.6184 210.212L83.5439 262.346L53.0034 318.8L58.5562 322.502C58.5562 322.502 102.053 275.303 103.596 270.984C105.138 266.665 114.084 227.796 114.084 227.796C114.084 227.796 117.169 215.148 111.925 208.361C106.681 201.574 89.0967 196.33 82.6184 210.212Z" fill="white"/>
</mask>
<g mask="url(#mask3_4631_2290)">
<path d="M58.5521 323.109C58.4304 323.107 58.3113 323.073 58.2066 323.01L52.6538 319.308C52.5288 319.219 52.44 319.087 52.4038 318.938C52.3676 318.788 52.3862 318.631 52.4564 318.494L82.9228 262.188L81.9973 210.214C81.9787 210.125 81.9787 210.032 81.9973 209.943C83.0396 207.48 84.729 205.346 86.8864 203.767C89.0437 202.187 91.5885 201.222 94.2505 200.972C101.568 200.157 109.206 203.896 112.353 207.968C117.72 214.916 114.759 227.403 114.623 227.934C114.265 229.513 105.652 266.878 104.122 271.184C102.592 275.491 60.7362 320.974 58.9593 322.912C58.8535 323.027 58.708 323.097 58.5521 323.109ZM53.8014 318.593L58.4534 321.69C70.793 308.301 101.79 274.183 103.012 270.765C104.517 266.532 113.389 228.033 113.476 227.65C113.476 227.514 116.425 215.199 111.427 208.733C108.552 205.032 101.235 201.441 94.4356 202.193C92.0089 202.42 89.6879 203.296 87.7164 204.729C85.7449 206.162 84.1957 208.099 83.2313 210.338L84.1568 262.324C84.1573 262.432 84.1319 262.537 84.0827 262.633L53.8014 318.593Z" fill="white"/>
</g>
</mask>
<g mask="url(#mask2_4631_2290)">
<path opacity="0.2" d="M101.982 265.686C100.131 267.08 76.994 299.064 65.9624 314.402C78.4377 300.718 102.451 274.151 103.598 270.967C105.141 266.648 114.087 227.779 114.087 227.779C114.087 227.779 114.26 227.05 114.457 225.854C112.236 216.735 101.673 207.097 99.5384 210.133L96.4905 233.023C96.4905 233.023 96.4905 251.643 97.0951 253.482C97.6998 255.32 103.512 251.347 102.031 253.482C100.55 255.617 90.7403 264.464 93.1835 264.464C95.6267 264.464 104.425 263.859 101.982 265.686Z" fill="white"/>
</g>
<path d="M58.5445 322.491C58.5445 322.491 58.853 331.746 59.47 333.288C60.087 334.831 62.5549 341.926 63.4804 343.468C64.4058 345.011 63.1719 345.936 61.6294 345.936C60.087 345.936 56.3851 345.936 54.8427 344.394C53.3002 342.851 50.8323 337.607 48.6729 335.139C46.5134 332.671 40.6521 329.586 42.5031 326.501C44.354 323.416 52.9917 318.789 52.9917 318.789L58.5445 322.491Z" fill="white"/>
<path d="M61.6328 346.561C59.9793 346.561 56.1294 346.561 54.4018 344.833C53.3087 343.504 52.3497 342.069 51.5391 340.551C50.5628 338.792 49.4488 337.113 48.2074 335.529C47.4846 334.768 46.705 334.062 45.8752 333.419C43.4073 331.383 40.3594 328.853 41.9759 326.163C43.8885 322.967 52.3411 318.414 52.699 318.229C52.7938 318.171 52.9026 318.141 53.0136 318.141C53.1246 318.141 53.2335 318.171 53.3283 318.229L58.8811 321.931C58.9639 321.985 59.0327 322.058 59.082 322.144C59.1313 322.229 59.1597 322.326 59.1649 322.424C59.2883 326.126 59.6215 331.963 60.041 333.012C60.2138 333.444 60.5223 334.246 60.9048 335.319C61.8101 337.965 62.8479 340.564 64.0144 343.106C64.2438 343.422 64.3813 343.796 64.4118 344.186C64.4423 344.575 64.3645 344.966 64.1871 345.314C63.9094 345.729 63.5267 346.063 63.0781 346.282C62.6294 346.501 62.1307 346.597 61.6328 346.561ZM52.9951 319.512C51.428 320.388 44.6166 324.251 43.1235 326.83C42.124 328.471 43.9996 330.211 46.7513 332.494C47.6302 333.178 48.4553 333.929 49.2192 334.739C50.5199 336.374 51.6798 338.116 52.6866 339.947C53.4594 341.363 54.3555 342.71 55.3643 343.969C56.7217 345.327 60.3002 345.327 61.7192 345.327C61.9932 345.354 62.2698 345.317 62.5269 345.219C62.7841 345.12 63.0145 344.963 63.2 344.759C63.2532 344.598 63.2664 344.426 63.2385 344.258C63.2105 344.09 63.1423 343.932 63.0395 343.797C61.8276 341.191 60.7567 338.521 59.8313 335.801C59.4611 334.776 59.1526 333.95 58.9798 333.53C58.3875 332.037 58.0914 324.658 58.0297 322.832L52.9951 319.512Z" fill="#263238"/>
<path d="M49.6477 332.509C47.6203 330.044 45.7295 327.469 43.9838 324.797C43.4158 325.295 42.9177 325.868 42.5031 326.5C40.6521 329.585 46.5134 332.67 48.6729 335.137C50.8323 337.605 53.3002 342.85 54.8427 344.392C56.3851 345.935 60.087 345.935 61.6294 345.935C63.1719 345.935 64.4058 345.009 63.4804 343.467C54.7316 343.146 53.2879 336.84 49.6477 332.509Z" fill="#263238"/>
<path d="M85.3863 187.688C85.3863 187.688 85.1889 188.255 84.8927 189.23C83.449 193.808 79.488 207.283 80.759 212.367C82.3014 218.536 95.4924 231.962 102.662 239.144C109.387 245.869 130.734 255.864 130.734 255.864C130.734 255.864 121.48 280.543 119.32 286.404C117.161 292.265 109.449 312.934 109.449 312.934L115.618 316.636C115.618 316.636 141.223 281.16 146.467 274.065C151.712 266.969 157.906 256.604 156.03 253.396C139.236 224.805 119.32 209.282 119.32 209.282L121.48 200.953L85.3863 187.688Z" fill="#263238"/>
<path d="M115.615 317.257C115.502 317.259 115.391 317.229 115.294 317.17L109.124 313.468C109 313.396 108.906 313.282 108.858 313.146C108.811 313.01 108.813 312.862 108.865 312.728C108.865 312.728 116.577 292.059 118.737 286.198C120.699 280.88 128.608 259.816 129.954 256.188C126.572 254.584 108.446 245.798 102.226 239.579C92.725 230.077 81.6317 218.417 80.151 212.518C78.917 207.373 82.6189 194.391 84.2971 189.073L84.7907 187.518C84.8483 187.363 84.963 187.235 85.1115 187.16C85.1872 187.127 85.2692 187.109 85.3521 187.109C85.435 187.109 85.517 187.127 85.5927 187.16L121.686 200.426C121.831 200.479 121.95 200.584 122.021 200.721C122.092 200.858 122.109 201.017 122.069 201.166L120.008 209.1C134.559 221.642 146.913 236.527 156.558 253.14C159.161 257.57 149.018 271.65 146.957 274.488C141.775 281.497 116.368 316.701 116.108 317.047C116.049 317.118 115.973 317.174 115.887 317.211C115.801 317.247 115.708 317.263 115.615 317.257ZM110.198 312.679L115.442 315.825C118.465 311.63 141.108 280.275 145.97 273.698C151.856 265.739 157.076 256.311 155.496 253.708C138.949 225.549 119.082 209.927 118.934 209.754C118.837 209.682 118.764 209.582 118.725 209.468C118.685 209.353 118.681 209.229 118.712 209.113L120.736 201.326L85.7655 188.493C85.6914 188.74 85.5927 189.048 85.4693 189.419C84.2354 193.515 80.1016 207.237 81.3479 212.222C82.9274 218.54 97.5868 233.199 103.09 238.703C109.667 245.28 130.78 255.213 130.99 255.312C131.132 255.377 131.244 255.493 131.303 255.637C131.363 255.782 131.366 255.943 131.311 256.089C131.212 256.336 122.032 280.83 119.897 286.617C117.922 291.948 111.37 309.532 110.198 312.679Z" fill="#263238"/>
<mask id="mask4_4631_2290" style="mask-type:luminance" maskUnits="userSpaceOnUse" x="80" y="187" width="77" height="130">
<mask id="mask5_4631_2290" style="mask-type:luminance" maskUnits="userSpaceOnUse" x="80" y="187" width="77" height="130">
<path d="M85.4132 187.672C85.4132 187.672 85.2157 188.239 84.9196 189.214C83.4759 193.792 79.5149 207.267 80.7858 212.351C82.3283 218.521 95.5193 231.946 102.689 239.128C109.414 245.853 130.761 255.848 130.761 255.848C130.761 255.848 121.506 280.527 119.347 286.388C117.188 292.25 109.475 312.919 109.475 312.919L115.645 316.62C115.645 316.62 141.25 281.144 146.494 274.049C151.738 266.954 157.933 256.588 156.057 253.38C139.263 224.789 119.347 209.266 119.347 209.266L121.506 200.937L85.4132 187.672Z" fill="white"/>
</mask>
<g mask="url(#mask5_4631_2290)">
<path d="M115.631 317.241C115.518 317.243 115.407 317.213 115.31 317.155L109.14 313.453C109.016 313.38 108.922 313.266 108.874 313.13C108.827 312.995 108.829 312.846 108.881 312.712C108.881 312.712 116.594 292.044 118.753 286.182C120.715 280.864 128.625 259.8 129.97 256.172C126.589 254.568 108.462 245.782 102.243 239.563C92.7411 230.062 81.6478 218.401 80.1671 212.503C78.9331 207.357 82.635 194.376 84.3132 189.057L84.8068 187.503C84.8644 187.347 84.9791 187.219 85.1276 187.145C85.2033 187.111 85.2853 187.094 85.3682 187.094C85.4511 187.094 85.5331 187.111 85.6088 187.145L121.702 200.41C121.847 200.463 121.966 200.569 122.037 200.706C122.108 200.843 122.125 201.001 122.085 201.15L120.024 209.085C134.575 221.626 146.929 236.511 156.574 253.125C159.177 257.554 149.034 271.634 146.974 274.472C141.791 281.481 116.384 316.686 116.125 317.031C116.065 317.103 115.989 317.159 115.903 317.195C115.817 317.232 115.724 317.247 115.631 317.241ZM110.214 312.663L115.458 315.81C118.481 311.614 141.125 280.259 145.986 273.682C151.872 265.723 157.092 256.296 155.513 253.692C138.965 225.533 119.098 209.911 118.95 209.739C118.853 209.666 118.78 209.566 118.741 209.452C118.701 209.337 118.697 209.214 118.728 209.097L120.752 201.311L85.7816 188.478C85.7076 188.724 85.6088 189.033 85.4854 189.403C84.2515 193.5 80.1177 207.221 81.364 212.207C82.9435 218.524 97.6029 233.184 103.106 238.687C109.683 245.264 130.796 255.198 131.006 255.296C131.148 255.361 131.26 255.478 131.32 255.622C131.379 255.766 131.382 255.928 131.327 256.074C131.228 256.32 122.048 280.815 119.913 286.602C117.939 291.933 111.386 309.516 110.214 312.663Z" fill="white"/>
</g>
</mask>
<g mask="url(#mask4_4631_2290)">
<path opacity="0.2" d="M119.328 209.275L119.686 207.856L112.665 204.648C112.665 204.648 106.557 202.513 104.114 202.809C101.67 203.106 100.412 210.139 104.422 214.112C108.433 218.086 137.998 231.511 136.172 231.807C134.346 232.104 114.195 230.573 117.552 232.424C120.908 234.275 144.415 236.385 143.193 238.224C141.972 240.063 139.491 240.976 142.885 242.494C146.278 244.011 154.286 252.365 156.347 255.24C156.427 254.606 156.32 253.963 156.039 253.389C139.245 224.799 119.328 209.275 119.328 209.275Z" fill="white"/>
</g>
<path d="M115.459 206.716C115.36 206.716 115.262 206.691 115.175 206.642C111.017 204.42 105.304 201.706 104.193 201.15C102.295 201.535 100.42 202.029 98.5788 202.631C98.4263 202.689 98.2576 202.685 98.108 202.62C97.9585 202.556 97.8397 202.436 97.7767 202.286C97.7193 202.133 97.7232 201.965 97.7877 201.815C97.8521 201.665 97.972 201.547 98.1222 201.484C100.094 200.843 102.101 200.311 104.132 199.892C104.26 199.849 104.398 199.849 104.526 199.892C104.6 199.892 111.128 203.038 115.755 205.506C115.877 205.572 115.972 205.676 116.028 205.802C116.083 205.928 116.094 206.069 116.06 206.202C116.026 206.335 115.949 206.453 115.84 206.537C115.731 206.622 115.597 206.667 115.459 206.666V206.716Z" fill="white"/>
<path d="M93.3649 200.803C93.2012 200.828 93.0346 200.786 92.9015 200.688C92.7684 200.589 92.6799 200.442 92.6553 200.279C92.6308 200.115 92.6723 199.948 92.7706 199.815C92.869 199.682 93.0161 199.594 93.1798 199.569C96.9906 198.504 100.953 198.087 104.902 198.335C105.066 198.335 105.223 198.4 105.339 198.516C105.454 198.632 105.519 198.788 105.519 198.952C105.519 199.116 105.454 199.273 105.339 199.388C105.223 199.504 105.066 199.569 104.902 199.569C101.096 199.355 97.2814 199.772 93.6117 200.803C93.5307 200.823 93.4459 200.823 93.3649 200.803Z" fill="white"/>
<path d="M115.62 316.632L119.938 326.195C119.938 326.195 128.576 330.514 128.576 331.748C128.576 332.981 126.725 333.29 126.725 333.29H114.386C112.843 333.29 108.833 329.28 105.131 327.12C101.429 324.961 99.8866 324.035 100.195 321.259C100.504 318.482 109.45 312.93 109.45 312.93L115.62 316.632Z" fill="white"/>
<path d="M114.383 333.916C113.347 333.916 111.916 332.855 109.509 330.991C108.019 329.782 106.453 328.669 104.82 327.66C101.118 325.488 99.2181 324.402 99.576 321.194C99.9091 318.208 108.214 313 109.114 312.42C109.211 312.36 109.322 312.328 109.435 312.328C109.549 312.328 109.66 312.36 109.756 312.42L115.926 316.122C116.035 316.184 116.122 316.279 116.173 316.394L120.405 325.759C126.229 328.684 129.191 330.695 129.191 331.769C129.191 333.151 127.698 333.768 126.822 333.916H114.383ZM109.448 313.667C106.079 315.789 100.995 319.59 100.81 321.342C100.563 323.637 101.649 324.377 105.45 326.598C107.13 327.639 108.745 328.78 110.287 330.016C111.903 331.25 113.729 332.682 114.396 332.682H126.735C126.735 332.682 127.969 332.41 127.969 331.756C127.661 331.102 123.416 328.622 119.665 326.759C119.541 326.693 119.441 326.589 119.381 326.463L115.136 317.109L109.448 313.667Z" fill="#263238"/>
<path d="M108.993 324.133C106.691 322.08 103.978 320.541 101.034 319.617C100.616 320.082 100.327 320.647 100.195 321.258C99.8866 324.035 101.429 324.96 105.131 327.12C108.833 329.279 112.843 333.289 114.386 333.289H126.725C126.725 333.289 128.576 332.981 128.576 331.747C128.576 331.747 128.576 331.673 128.576 331.636C124.956 331.438 121.353 331.002 117.791 330.328C110.449 328.86 113.004 327.774 108.993 324.133Z" fill="#263238"/>
<path d="M124.33 118.801C118.509 119.875 113.1 122.545 108.708 126.513C102.168 132.843 97.8242 141.752 97.4293 145.911C97.0345 150.069 91.42 170.072 89.3099 174.205C87.1998 178.339 82.3627 185.397 85.5463 189.432C87.1505 191.456 119.184 202.093 122.355 202.093C125.527 202.093 126.514 199.131 126.909 197.354C127.303 195.577 131.252 179.339 134.423 173.403C137.595 167.468 144.715 163.532 145.529 149.662C146.036 141.477 144.034 133.333 139.791 126.315C139.791 126.315 130.462 118.603 124.33 118.801Z" fill="white"/>
<path d="M122.355 202.72C119.246 202.72 86.9036 192.158 85.065 189.826C82.0911 186.05 85.3488 180.164 87.718 175.857C88.1128 175.154 88.4707 174.512 88.7668 173.932C90.8399 169.872 96.4297 149.858 96.8122 145.86C97.2441 141.245 101.958 132.2 108.276 126.116C112.755 122.045 118.287 119.313 124.243 118.231H124.317C130.623 118.009 139.779 125.573 140.161 125.894C140.204 125.929 140.242 125.971 140.272 126.018C144.617 133.137 146.659 141.424 146.121 149.747C145.541 159.914 141.506 164.974 138.273 169.046C137.035 170.513 135.928 172.086 134.966 173.747C131.931 179.448 128.093 194.922 127.562 197.525C126.736 200.968 124.996 202.72 122.355 202.72ZM124.391 119.428C123.774 119.527 115.235 121.045 109.127 126.968C102.464 133.434 98.4041 142.17 98.0215 145.971C97.6267 150.166 92.0368 170.23 89.8527 174.487C89.5442 175.08 89.1864 175.721 88.7915 176.449C86.5827 180.447 83.5595 185.939 86.0275 189.061C87.3971 190.689 118.962 201.486 122.343 201.486C124.367 201.486 125.65 200.092 126.291 197.229C126.871 194.589 130.758 178.942 133.868 173.13C134.858 171.383 136.006 169.731 137.298 168.194C140.593 164.061 144.32 159.359 144.875 149.586C145.345 141.57 143.402 133.598 139.297 126.696C138.458 126.055 129.956 119.219 124.391 119.428Z" fill="#263238"/>
<mask id="mask6_4631_2290" style="mask-type:luminance" maskUnits="userSpaceOnUse" x="84" y="118" width="62" height="85">
<mask id="mask7_4631_2290" style="mask-type:luminance" maskUnits="userSpaceOnUse" x="84" y="118" width="62" height="85">
<path d="M124.339 118.801C118.518 119.875 113.11 122.545 108.717 126.513C102.177 132.843 97.834 141.752 97.4391 145.911C97.0442 150.069 91.4297 170.072 89.3197 174.205C87.2096 178.339 82.3725 185.397 85.5561 189.432C87.1602 191.456 119.194 202.093 122.365 202.093C125.536 202.093 126.523 199.131 126.918 197.354C127.313 195.577 131.262 179.339 134.433 173.403C137.604 167.468 144.724 163.532 145.539 149.662C146.046 141.477 144.044 133.333 139.801 126.315C139.801 126.315 130.472 118.603 124.339 118.801Z" fill="white"/>
</mask>
<g mask="url(#mask7_4631_2290)">
<path d="M122.366 202.713C119.257 202.713 86.9148 192.15 85.0762 189.818C82.1024 186.042 85.36 180.156 87.7292 175.849C88.1241 175.146 88.4819 174.504 88.7781 173.924C90.8511 169.865 96.4409 149.85 96.8235 145.852C97.2554 141.237 101.969 132.192 108.287 126.109C112.766 122.037 118.299 119.305 124.254 118.224H124.328C130.634 118.001 139.79 125.566 140.172 125.886C140.216 125.921 140.253 125.963 140.283 126.01C144.628 133.129 146.67 141.416 146.132 149.739C145.552 159.907 141.517 164.966 138.284 169.038C137.046 170.505 135.94 172.078 134.977 173.739C131.942 179.44 128.104 194.914 127.574 197.518C126.747 200.96 125.007 202.713 122.366 202.713ZM124.402 119.42C123.785 119.519 115.246 121.037 109.138 126.96C102.475 133.426 98.4153 142.162 98.0328 145.963C97.6379 150.158 92.0481 170.223 89.864 174.48C89.5555 175.072 89.1976 175.714 88.8027 176.442C86.594 180.44 83.5708 185.931 86.0387 189.053C87.4084 190.682 118.973 201.479 122.354 201.479C124.378 201.479 125.661 200.084 126.303 197.222C126.883 194.581 130.77 178.934 133.879 173.122C134.869 171.376 136.018 169.723 137.31 168.186C140.604 164.053 144.331 159.351 144.886 149.578C145.356 141.563 143.413 133.59 139.309 126.688C138.47 126.047 129.968 119.211 124.402 119.42Z" fill="white"/>
</g>
</mask>
<g mask="url(#mask6_4631_2290)">
<path d="M114.483 162.115C123.491 158.252 128.97 158.252 134.757 156.957C140.545 155.661 123.812 155.994 120.271 154.39C116.729 152.786 130.895 150.849 134.437 149.874C137.978 148.899 126.391 150.528 119.629 150.528C112.867 150.528 104.822 136.041 111.904 129.55C118.987 123.06 130.574 122.467 130.574 122.467L130.303 120.271C128.451 119.336 126.416 118.822 124.343 118.766C118.522 119.84 113.113 122.51 108.721 126.478C102.181 132.808 97.8374 141.717 97.4425 145.876C97.0476 150.034 91.4331 170.037 89.3231 174.17C87.213 178.304 82.3759 185.362 85.5595 189.397C87.1636 191.421 119.197 202.058 122.368 202.058C122.866 202.057 123.36 201.965 123.825 201.786C118.457 199.318 108.536 195.518 105.142 193.926C100.318 191.668 117.371 188.139 120.912 183.622C124.454 179.106 108.363 185.881 103.859 186.201C99.3551 186.522 97.4178 184.276 102.243 182.981C107.067 181.685 119.95 172.356 125.688 168.815C131.426 165.274 103.477 175.898 98.9726 175.256C94.4687 174.615 105.525 165.977 114.483 162.115Z" fill="#94B4E9"/>
<path opacity="0.5" d="M114.483 162.115C123.491 158.252 128.97 158.252 134.757 156.957C140.545 155.661 123.812 155.994 120.271 154.39C116.729 152.786 130.895 150.849 134.437 149.874C137.978 148.899 126.391 150.528 119.629 150.528C112.867 150.528 104.822 136.041 111.904 129.55C118.987 123.06 130.574 122.467 130.574 122.467L130.303 120.271C128.451 119.336 126.416 118.822 124.343 118.766C118.522 119.84 113.113 122.51 108.721 126.478C102.181 132.808 97.8374 141.717 97.4425 145.876C97.0476 150.034 91.4331 170.037 89.3231 174.17C87.213 178.304 82.3759 185.362 85.5595 189.397C87.1636 191.421 119.197 202.058 122.368 202.058C122.866 202.057 123.36 201.965 123.825 201.786C118.457 199.318 108.536 195.518 105.142 193.926C100.318 191.668 117.371 188.139 120.912 183.622C124.454 179.106 108.363 185.881 103.859 186.201C99.3551 186.522 97.4178 184.276 102.243 182.981C107.067 181.685 119.95 172.356 125.688 168.815C131.426 165.274 103.477 175.898 98.9726 175.256C94.4687 174.615 105.525 165.977 114.483 162.115Z" fill="#94B4E9"/>
</g>
<path d="M127.868 153.959C124.326 153.978 120.793 153.585 117.342 152.787C117.186 152.743 117.052 152.64 116.971 152.499C116.891 152.358 116.869 152.191 116.91 152.034C116.929 151.956 116.963 151.882 117.011 151.817C117.058 151.753 117.118 151.698 117.187 151.656C117.256 151.615 117.333 151.588 117.412 151.576C117.492 151.565 117.573 151.57 117.651 151.59C123.814 152.963 130.195 153.051 136.394 151.849C136.474 151.833 136.556 151.832 136.635 151.848C136.715 151.863 136.791 151.894 136.858 151.939C136.926 151.983 136.984 152.041 137.029 152.108C137.075 152.175 137.106 152.251 137.122 152.33C137.141 152.409 137.143 152.49 137.129 152.57C137.115 152.649 137.085 152.725 137.042 152.793C136.998 152.861 136.941 152.919 136.874 152.965C136.808 153.01 136.733 153.042 136.654 153.058C133.765 153.668 130.82 153.97 127.868 153.959Z" fill="#263238"/>
<path d="M130.689 159.413C124.295 158.639 118.11 156.637 112.476 153.515C112.397 153.48 112.327 153.428 112.27 153.363C112.212 153.299 112.169 153.223 112.143 153.141C112.116 153.059 112.108 152.972 112.117 152.886C112.126 152.8 112.153 152.717 112.197 152.643C112.24 152.568 112.299 152.503 112.369 152.453C112.439 152.402 112.519 152.367 112.603 152.349C112.688 152.331 112.775 152.332 112.859 152.35C112.944 152.368 113.023 152.403 113.093 152.454C113.18 152.454 121.805 157.39 130.8 158.18C130.964 158.188 131.118 158.261 131.228 158.382C131.338 158.504 131.395 158.664 131.387 158.827C131.378 158.991 131.306 159.145 131.184 159.255C131.063 159.364 130.902 159.422 130.739 159.413H130.689Z" fill="#263238"/>
<path d="M126.882 172.26C126.776 172.258 126.672 172.23 126.579 172.179C126.487 172.127 126.408 172.053 126.351 171.964C126.309 171.894 126.28 171.817 126.268 171.736C126.256 171.656 126.259 171.573 126.279 171.494C126.298 171.415 126.333 171.341 126.382 171.275C126.43 171.209 126.491 171.154 126.561 171.112C128.243 170.098 129.866 168.99 131.423 167.793C131.554 167.693 131.72 167.648 131.884 167.669C132.048 167.69 132.197 167.774 132.299 167.904C132.395 168.035 132.438 168.197 132.417 168.358C132.396 168.519 132.314 168.666 132.188 168.768C130.606 169.98 128.958 171.105 127.252 172.137C127.145 172.217 127.015 172.26 126.882 172.26Z" fill="#263238"/>
<path d="M95.5231 185.684C95.3594 185.709 95.1928 185.667 95.0597 185.569C94.9266 185.471 94.8381 185.324 94.8135 185.16C94.789 184.996 94.8305 184.83 94.9288 184.697C95.0272 184.563 95.1743 184.475 95.338 184.45C104.512 181.596 113.435 177.989 122.016 173.666C122.162 173.589 122.332 173.573 122.489 173.621C122.647 173.67 122.778 173.779 122.855 173.925C122.932 174.07 122.948 174.241 122.899 174.398C122.851 174.555 122.742 174.687 122.596 174.764C113.955 179.134 104.961 182.766 95.7082 185.623C95.6512 185.655 95.5883 185.676 95.5231 185.684Z" fill="#263238"/>
<path d="M89.7601 187.418C89.6261 187.42 89.4952 187.378 89.388 187.297C89.2808 187.217 89.2033 187.103 89.1678 186.974C89.1453 186.895 89.1387 186.813 89.1483 186.732C89.1579 186.651 89.1836 186.572 89.2237 186.501C89.2639 186.43 89.3178 186.368 89.3824 186.317C89.4469 186.267 89.5208 186.23 89.5997 186.209C89.5997 186.209 90.2907 186.024 91.5 185.666C91.581 185.643 91.6659 185.635 91.7497 185.645C91.8335 185.654 91.9147 185.68 91.9887 185.72C92.0626 185.761 92.1277 185.816 92.1804 185.882C92.2332 185.947 92.2724 186.023 92.2959 186.104C92.3194 186.185 92.3267 186.27 92.3174 186.354C92.3081 186.438 92.2824 186.519 92.2417 186.593C92.201 186.667 92.1462 186.732 92.0803 186.785C92.0144 186.837 91.9388 186.877 91.8578 186.9L89.9205 187.468L89.7601 187.418Z" fill="#263238"/>
<path d="M95.3063 190.322C95.1427 190.352 94.9741 190.315 94.8375 190.22C94.701 190.125 94.6077 189.98 94.5783 189.816C94.5488 189.653 94.5856 189.484 94.6805 189.348C94.7753 189.211 94.9206 189.118 95.0842 189.088C101.369 186.707 107.519 183.984 113.507 180.932C113.578 180.894 113.656 180.87 113.737 180.862C113.817 180.854 113.898 180.863 113.975 180.887C114.052 180.911 114.124 180.951 114.185 181.003C114.247 181.055 114.297 181.119 114.334 181.191C114.373 181.261 114.397 181.339 114.406 181.419C114.414 181.498 114.407 181.579 114.384 181.656C114.361 181.733 114.323 181.805 114.272 181.867C114.221 181.929 114.158 181.98 114.087 182.018C108.067 185.087 101.889 187.834 95.5778 190.248C95.494 190.293 95.4012 190.318 95.3063 190.322Z" fill="#263238"/>
<path d="M137.99 130.557C137.99 130.557 141.519 140.293 144.16 141.169C146.8 142.045 158.757 138.072 160.078 132.334C161.398 126.596 142.802 117.292 137.978 115.059C133.153 112.825 117.642 111.961 108.794 110.641C99.947 109.321 91.9879 104.471 86.6943 103.126C81.4006 101.781 66.7905 104.015 66.7905 104.015L76.9583 110.641C76.9583 110.641 93.3206 114.614 99.5151 114.614C105.71 114.614 111.003 111.961 119.406 114.614C127.81 117.267 138.422 119.92 145.048 123.018C151.674 126.115 156.981 127.879 156.981 131.865C156.981 135.851 149.935 139.405 148.602 139.405C147.269 139.405 144.172 128.792 140.643 127.904C140.643 127.904 136.213 125.695 137.99 130.557Z" fill="#263238"/>
<path d="M145.152 141.873C144.76 141.882 144.369 141.833 143.992 141.725C141.129 140.775 137.822 131.755 137.415 130.731C136.773 128.978 136.81 127.818 137.526 127.177C138.538 126.276 140.376 127.053 140.857 127.288C143.251 127.954 145.238 132.076 146.842 135.383C147.335 136.565 147.956 137.691 148.693 138.739C149.927 138.591 156.381 135.272 156.381 131.854C156.381 128.818 152.679 127.115 147.434 124.771C146.595 124.388 145.707 123.993 144.806 123.537C138.977 121.115 132.991 119.091 126.889 117.478C124.261 116.7 121.657 115.935 119.238 115.17C113.71 113.431 109.54 114.035 105.517 114.627C103.539 114.965 101.538 115.155 99.5322 115.195C93.3624 115.195 77.506 111.37 76.8273 111.209L76.6423 111.123L66.4744 104.484C66.3711 104.415 66.2909 104.317 66.2445 104.202C66.198 104.086 66.1874 103.96 66.2141 103.839C66.2408 103.717 66.3034 103.607 66.3939 103.522C66.4844 103.436 66.5985 103.381 66.7212 103.361C67.3135 103.275 81.5287 101.153 86.8594 102.485C89.3272 103.212 91.7396 104.115 94.0781 105.188C98.7903 107.409 103.766 109.022 108.886 109.988C111.699 110.42 115.142 110.79 118.757 111.222C126.642 112.073 134.799 112.949 138.192 114.504C140.66 115.615 162.217 125.61 160.65 132.446C159.984 135.333 157.035 137.517 154.678 138.85C151.759 140.536 148.509 141.568 145.152 141.873ZM138.575 130.311C139.895 134.013 142.647 139.973 144.374 140.553C145.901 140.699 147.441 140.497 148.878 139.961H148.607C147.731 139.961 147.126 138.788 145.732 135.901C144.337 133.013 142.351 128.904 140.5 128.497H140.364C139.747 128.189 138.661 127.892 138.34 128.176C138.266 128.176 137.945 128.645 138.575 130.385V130.311ZM111.921 112.814C114.533 112.818 117.127 113.235 119.609 114.047C122.077 114.8 124.606 115.565 127.235 116.343C133.787 118.255 140.561 120.242 145.324 122.512L147.94 123.746C153.345 126.214 157.615 128.115 157.615 131.952C157.615 135.247 153.468 138.196 150.692 139.442C151.874 138.999 153.021 138.467 154.122 137.851C157.146 136.16 159.058 134.149 159.49 132.248C160.502 127.868 146.682 119.773 137.736 115.713C134.515 114.245 126.099 113.332 118.671 112.53C114.969 112.135 111.551 111.765 108.725 111.296C103.493 110.3 98.4095 108.641 93.5968 106.36C91.3144 105.312 88.9597 104.43 86.5509 103.719C82.4665 102.695 72.4591 103.867 68.5228 104.398L77.1605 110.062C78.5549 110.407 93.6709 113.998 99.4705 113.998C101.419 113.953 103.361 113.768 105.282 113.443C107.477 113.078 109.696 112.88 111.921 112.851V112.814Z" fill="#263238"/>
<path d="M148.872 82.1947C148.872 82.1947 153.808 87.9326 153.808 88.9321C153.808 89.9317 154.005 91.3014 154.005 91.8937C154.005 92.486 160.94 95.5955 160.94 96.8295C160.94 98.0634 156.387 100.79 156.387 100.79V111.896C156.387 114.068 155.153 114.66 153.018 115.45C150.884 116.24 145.701 115.252 145.701 115.252L139.766 126.358L126.513 116.486L130.215 108.379L128.981 106.01C128.981 106.01 122.453 102.308 123.835 96.1385C125.217 89.9687 130.363 89.216 131.955 86.8344C133.546 84.4529 136.101 79.1222 138.482 78.3325C140.864 77.5427 148.872 82.1947 148.872 82.1947Z" fill="white"/>
<path d="M139.775 126.941C139.642 126.944 139.511 126.9 139.405 126.818L126.153 116.946C126.038 116.862 125.956 116.742 125.92 116.605C125.884 116.468 125.897 116.322 125.955 116.193L129.595 108.358L128.62 106.408C127.572 105.742 122.006 101.867 123.339 95.9442C124.326 91.6253 127.041 89.7744 129.2 88.38C130.096 87.8811 130.891 87.22 131.545 86.4304C131.915 85.8874 132.335 85.1964 132.779 84.3944C134.371 81.7043 136.345 78.3603 138.381 77.6816C140.849 76.8549 147.821 80.8776 149.178 81.7043C149.238 81.7311 149.289 81.7738 149.326 81.8277C151.239 84.0365 154.423 87.8988 154.423 88.96C154.423 89.4783 154.484 90.194 154.546 90.7369C154.546 91.1194 154.546 91.4649 154.62 91.7241C155.355 92.2345 156.117 92.7041 156.903 93.1308C160.062 94.957 161.555 95.9195 161.555 96.8327C161.555 98.0666 158.828 100.004 157.002 101.139V111.875C157.002 114.441 155.508 115.182 153.226 116.008C151.288 116.712 147.364 116.144 146.032 115.922L140.306 126.608C140.265 126.686 140.207 126.754 140.137 126.807C140.066 126.861 139.985 126.898 139.899 126.917L139.775 126.941ZM127.288 116.243L139.627 125.399L145.23 114.959C145.289 114.842 145.385 114.747 145.503 114.69C145.621 114.632 145.754 114.614 145.884 114.639C147.278 114.91 151.227 115.465 152.88 114.861C155.027 114.083 155.842 113.627 155.842 111.887V100.781C155.841 100.675 155.868 100.57 155.92 100.477C155.972 100.384 156.047 100.306 156.138 100.251C158.31 98.9304 160.309 97.3139 160.395 96.808C159.149 95.7784 157.796 94.8849 156.36 94.1426C154.015 92.7976 153.46 92.4521 153.46 91.8721C153.46 91.6253 153.46 91.2428 153.386 90.7986C153.312 90.3544 153.263 89.4906 153.263 88.9106C151.898 86.6739 150.315 84.5783 148.537 82.6545C145.55 80.8776 140.368 78.2986 138.85 78.8045C137.332 79.3104 135.321 82.5928 133.914 84.9743C133.445 85.7764 133.013 86.5044 132.68 87.072C131.945 88.0007 131.036 88.7763 130.003 89.3549C127.905 90.7492 125.523 92.3287 124.659 96.1663C123.426 101.793 129.447 105.347 129.509 105.384C129.615 105.445 129.7 105.535 129.756 105.643L130.99 108.025C131.029 108.108 131.05 108.198 131.05 108.29C131.05 108.382 131.029 108.472 130.99 108.555L127.288 116.243Z" fill="#263238"/>
<mask id="mask8_4631_2290" style="mask-type:luminance" maskUnits="userSpaceOnUse" x="123" y="78" width="38" height="49">
<mask id="mask9_4631_2290" style="mask-type:luminance" maskUnits="userSpaceOnUse" x="123" y="78" width="38" height="49">
<path d="M148.896 82.1947C148.896 82.1947 153.831 87.9326 153.831 88.9321C153.831 89.9317 154.029 91.3014 154.029 91.8937C154.029 92.486 160.964 95.5955 160.964 96.8295C160.964 98.0634 156.41 100.79 156.41 100.79V111.896C156.41 114.068 155.176 114.66 153.042 115.45C150.907 116.24 145.724 115.252 145.724 115.252L139.789 126.358L126.536 116.486L130.238 108.379L129.004 106.01C129.004 106.01 122.477 102.308 123.859 96.1385C125.241 89.9687 130.386 89.216 131.978 86.8344C133.57 84.4529 136.124 79.1222 138.506 78.3325C140.887 77.5427 148.896 82.1947 148.896 82.1947Z" fill="white"/>
</mask>
<g mask="url(#mask9_4631_2290)">
<path d="M139.781 126.941C139.647 126.944 139.516 126.9 139.411 126.818L126.158 116.946C126.044 116.862 125.962 116.742 125.926 116.605C125.89 116.468 125.902 116.322 125.961 116.193L129.601 108.358L128.626 106.408C127.577 105.742 122.012 101.867 123.345 95.9442C124.332 91.6253 127.046 89.7744 129.206 88.38C130.101 87.8811 130.896 87.22 131.55 86.4304C131.921 85.8874 132.34 85.1964 132.784 84.3944C134.376 81.7043 136.35 78.3603 138.386 77.6816C140.854 76.8549 147.826 80.8776 149.184 81.7043C149.243 81.7311 149.295 81.7738 149.332 81.8277C151.244 84.0365 154.428 87.8988 154.428 88.96C154.428 89.4783 154.49 90.194 154.551 90.7369C154.551 91.1194 154.551 91.4649 154.625 91.7241C155.36 92.2345 156.122 92.7041 156.908 93.1308C160.067 94.957 161.56 95.9195 161.56 96.8327C161.56 98.0666 158.833 100.004 157.007 101.139V111.875C157.007 114.441 155.514 115.182 153.231 116.008C151.294 116.712 147.37 116.144 146.037 115.922L140.311 126.608C140.27 126.686 140.212 126.754 140.142 126.807C140.072 126.861 139.991 126.898 139.904 126.917L139.781 126.941ZM127.293 116.243L139.633 125.399L145.235 114.959C145.294 114.842 145.39 114.747 145.508 114.69C145.626 114.632 145.76 114.614 145.889 114.639C147.283 114.91 151.232 115.465 152.885 114.861C155.033 114.083 155.847 113.627 155.847 111.887V100.781C155.846 100.675 155.873 100.57 155.925 100.477C155.977 100.384 156.052 100.306 156.143 100.251C158.315 98.9304 160.314 97.3139 160.4 96.808C159.154 95.7784 157.801 94.8849 156.365 94.1426C154.021 92.7976 153.465 92.4521 153.465 91.8721C153.465 91.6253 153.465 91.2428 153.391 90.7986C153.317 90.3544 153.268 89.4906 153.268 88.9106C151.904 86.6739 150.32 84.5783 148.542 82.6545C145.556 80.8776 140.373 78.2986 138.855 78.8045C137.338 79.3104 135.326 82.5928 133.92 84.9743C133.451 85.7764 133.019 86.5044 132.686 87.072C131.951 88.0007 131.041 88.7763 130.008 89.3549C127.91 90.7492 125.529 92.3287 124.665 96.1663C123.431 101.793 129.453 105.347 129.514 105.384C129.62 105.445 129.706 105.535 129.761 105.643L130.995 108.025C131.035 108.108 131.055 108.198 131.055 108.29C131.055 108.382 131.035 108.472 130.995 108.555L127.293 116.243Z" fill="white"/>
</g>
</mask>
<g mask="url(#mask8_4631_2290)">
<path d="M148.276 112.524C141.514 110.278 142.106 106.095 141.835 99.9747C141.563 93.8543 136.368 84.5256 136.368 84.5256L133.53 84.3281C132.987 85.2536 132.481 86.105 132.062 86.796C130.47 89.1776 125.324 89.9673 123.942 96.1001C122.56 102.233 129.088 105.972 129.088 105.972L130.322 108.341L126.62 116.448L139.873 126.32L145.808 115.214C145.808 115.214 150.953 116.201 153.125 115.412C153.904 115.165 154.647 114.816 155.334 114.375C152.941 113.921 150.583 113.303 148.276 112.524Z" fill="#94B4E9"/>
<path opacity="0.5" d="M148.276 112.524C141.514 110.278 142.106 106.095 141.835 99.9747C141.563 93.8543 136.368 84.5256 136.368 84.5256L133.53 84.3281C132.987 85.2536 132.481 86.105 132.062 86.796C130.47 89.1776 125.324 89.9673 123.942 96.1001C122.56 102.233 129.088 105.972 129.088 105.972L130.322 108.341L126.62 116.448L139.873 126.32L145.808 115.214C145.808 115.214 150.953 116.201 153.125 115.412C153.904 115.165 154.647 114.816 155.334 114.375C152.941 113.921 150.583 113.303 148.276 112.524Z" fill="white"/>
<path d="M146.494 91.2855C146.39 91.2825 146.289 91.254 146.199 91.2025C146.109 91.1509 146.033 91.0779 145.978 90.99C145.923 90.9021 145.891 90.802 145.884 90.6985C145.877 90.5951 145.896 90.4915 145.938 90.3971C146.432 89.5833 147.108 88.8949 147.913 88.3857C149.603 87.1518 152.231 88.6819 152.343 88.7436C152.483 88.8283 152.586 88.9649 152.627 89.124C152.669 89.2832 152.646 89.4522 152.565 89.595C152.525 89.6656 152.472 89.7275 152.408 89.7771C152.344 89.8267 152.27 89.8629 152.192 89.8836C152.114 89.9043 152.032 89.9091 151.952 89.8977C151.872 89.8863 151.795 89.8589 151.726 89.8171C151.158 89.4839 149.504 88.7683 148.641 89.3852C148.004 89.7878 147.461 90.3222 147.049 90.9524C146.995 91.053 146.915 91.1372 146.817 91.1958C146.72 91.2545 146.608 91.2855 146.494 91.2855Z" fill="#263238"/>
<path d="M152.041 94.4851H148.709C148.568 94.4881 148.43 94.4416 148.32 94.3537C148.21 94.2658 148.133 94.1421 148.105 94.0039C148.073 93.865 148.092 93.7196 148.158 93.5932C148.223 93.4668 148.331 93.3675 148.462 93.3129L151.621 91.9185C151.696 91.8861 151.776 91.8687 151.857 91.8673C151.939 91.8659 152.019 91.8805 152.095 91.9103C152.171 91.9401 152.24 91.9845 152.298 92.0409C152.357 92.0974 152.403 92.1648 152.436 92.2394C152.468 92.3139 152.486 92.3941 152.487 92.4754C152.488 92.5566 152.474 92.6374 152.444 92.713C152.414 92.7886 152.37 92.8576 152.313 92.9161C152.257 92.9746 152.189 93.0213 152.115 93.0538L151.658 93.2512H152.066C152.229 93.2512 152.386 93.3162 152.502 93.4319C152.618 93.5476 152.683 93.7045 152.683 93.8682C152.683 93.9513 152.666 94.0336 152.633 94.1101C152.601 94.1866 152.553 94.2558 152.493 94.3134C152.433 94.371 152.362 94.4159 152.285 94.4455C152.207 94.475 152.124 94.4885 152.041 94.4851Z" fill="#263238"/>
</g>
<path d="M134.623 96.8381C134.707 97.2055 134.905 97.5369 135.189 97.785C135.472 98.0332 135.827 98.1855 136.202 98.2201C136.528 98.2632 136.858 98.2409 137.175 98.1546C137.492 98.0683 137.788 97.9197 138.047 97.7174C138.305 97.5152 138.521 97.2634 138.681 96.9768C138.841 96.6902 138.942 96.3746 138.979 96.0484C138.979 94.8144 137.399 92.2848 138.584 91.4951C139.768 90.7053 141.94 90.5079 141.545 88.3238C141.15 86.1397 138.979 86.7443 139.374 84.3751C139.768 82.0059 147.086 81.9936 148.875 82.191C150.664 82.3885 150.652 78.6372 148.678 74.2814C146.703 69.9255 138.979 68.346 137.399 70.1229C136.945 70.5544 136.671 71.1427 136.635 71.7683C136.598 72.3939 136.801 73.01 137.202 73.4916C137.202 73.4916 128.49 71.9122 127.503 73.4916C126.516 75.0711 127.503 75.8608 127.503 75.8608C127.503 75.8608 120.58 74.4788 115.83 83.1905C111.079 91.9023 117.212 101.157 120.58 103.625C123.949 106.093 129.082 108.376 133.043 106.994C137.004 105.612 131.057 100.824 130.662 98.4793C130.267 96.1348 134.623 96.8381 134.623 96.8381Z" fill="#263238"/>
<path d="M130.481 107.959C126.137 107.959 121.682 105.108 120.226 104.072C116.722 101.604 110.355 91.9914 115.291 82.8971C118.992 76.024 124.212 75.1849 126.483 75.1849C126.393 74.4726 126.569 73.7523 126.976 73.1612C127.939 71.6434 133.023 72.1864 136.12 72.68C135.992 72.1578 136 71.6118 136.143 71.0936C136.285 70.5753 136.558 70.102 136.934 69.7185C137.662 68.904 139.254 68.6079 141.29 68.9164C144.289 69.3606 147.916 71.1252 149.237 74.025C150.841 77.5541 151.26 80.8117 150.286 82.1568C150.122 82.3902 149.897 82.5745 149.636 82.6897C149.375 82.805 149.088 82.8468 148.805 82.8108C146.337 82.5393 140.254 82.8848 139.982 84.4766C139.834 85.4021 140.118 85.6118 140.685 86.0437C141.067 86.2873 141.395 86.607 141.647 86.9828C141.9 87.3586 142.072 87.7824 142.154 88.2278C142.549 90.3379 140.92 91.0536 139.859 91.5348C139.536 91.6672 139.227 91.8283 138.933 92.0161C138.538 92.2752 138.933 93.4845 139.192 94.2866C139.411 94.8524 139.548 95.4466 139.6 96.0511C139.585 96.4393 139.487 96.8197 139.312 97.1666C139.137 97.5136 138.89 97.8191 138.588 98.0625C138.257 98.3623 137.865 98.587 137.439 98.7212C137.013 98.8554 136.563 98.8959 136.12 98.8399C135.696 98.7895 135.292 98.63 134.948 98.3769C134.604 98.1239 134.332 97.7859 134.158 97.3961C133.228 97.192 132.256 97.314 131.406 97.7416C131.335 97.8183 131.286 97.9126 131.265 98.0147C131.243 98.1167 131.249 98.2228 131.283 98.3216C131.653 99.3254 132.196 100.257 132.887 101.073C134.121 102.789 135.355 104.565 134.923 106.009C134.783 106.375 134.558 106.703 134.266 106.965C133.974 107.227 133.624 107.415 133.245 107.515C132.355 107.816 131.42 107.966 130.481 107.959ZM126.372 76.3942C124.36 76.3942 119.819 77.1592 116.376 83.4894C111.786 91.8927 117.697 100.765 120.93 103.06C124.163 105.355 129.271 107.601 132.837 106.355C133.603 106.083 133.714 105.75 133.738 105.639C134.022 104.775 132.837 103.171 131.875 101.789C131.059 100.83 130.443 99.7186 130.061 98.519C129.997 98.2232 130.007 97.9161 130.091 97.6254C130.175 97.3346 130.33 97.0692 130.542 96.8532C131.702 95.7179 134.429 96.1745 134.738 96.2362C134.861 96.2574 134.975 96.3162 135.063 96.4046C135.151 96.493 135.21 96.6066 135.231 96.7298C135.299 96.967 135.436 97.1784 135.626 97.3368C135.815 97.4952 136.047 97.5932 136.293 97.6183C136.561 97.6436 136.832 97.614 137.089 97.5312C137.345 97.4485 137.582 97.3144 137.786 97.137C137.951 97.0045 138.087 96.84 138.187 96.6534C138.286 96.4668 138.347 96.2619 138.366 96.0511C138.301 95.5793 138.185 95.1158 138.02 94.6691C137.601 93.3734 137.07 91.7693 138.242 90.9672C138.597 90.7488 138.968 90.5589 139.353 90.3996C140.587 89.869 141.142 89.5358 140.945 88.4253C140.89 88.1325 140.772 87.8551 140.599 87.6122C140.427 87.3694 140.203 87.1668 139.945 87.0186C139.464 86.7608 139.082 86.351 138.859 85.8531C138.636 85.3552 138.584 84.7974 138.711 84.2668C139.279 80.8488 148.78 81.5645 148.879 81.5768C148.945 81.5881 149.012 81.5801 149.074 81.5539C149.135 81.5276 149.187 81.4841 149.224 81.4287C149.73 80.7254 149.693 78.1341 148.052 74.5309C146.929 72.063 143.635 70.5082 141.043 70.1133C139.291 69.8542 138.143 70.1133 137.798 70.5329C137.448 70.8521 137.233 71.2926 137.196 71.7648C137.16 72.237 137.304 72.7054 137.601 73.0748C137.685 73.1723 137.737 73.2931 137.75 73.421C137.763 73.549 137.737 73.678 137.675 73.7905C137.611 73.8997 137.515 73.9866 137.4 74.0396C137.286 74.0925 137.157 74.109 137.033 74.0867C132.603 73.2846 128.395 73.1489 127.963 73.8029C127.272 74.9134 127.828 75.37 127.828 75.37C127.935 75.4564 128.01 75.5762 128.042 75.7104C128.073 75.8446 128.058 75.9854 128 76.1104C127.942 76.2356 127.844 76.3377 127.721 76.4003C127.598 76.463 127.457 76.4825 127.322 76.4559C127.007 76.4096 126.689 76.3889 126.372 76.3942Z" fill="#263238"/>
<path d="M136.599 99.1982C136.599 99.1982 135.365 94.8547 132.255 94.4598C129.146 94.065 127.319 97.6188 129.084 100.987C130.849 104.356 134.624 106.725 135.809 106.331C136.994 105.936 137.598 103.752 137.598 103.752" fill="white"/>
<path d="M135.536 106.992C133.697 106.992 130.23 104.524 128.539 101.279C128.01 100.406 127.73 99.4054 127.73 98.385C127.73 97.3646 128.01 96.3637 128.539 95.4913C128.941 94.8988 129.501 94.4309 130.155 94.1408C130.81 93.8506 131.532 93.75 132.241 93.8502C135.77 94.2944 137.054 98.86 137.177 99.0451C137.221 99.2088 137.199 99.3832 137.114 99.5302C137.03 99.6771 136.89 99.7845 136.727 99.8287C136.563 99.8729 136.388 99.8502 136.242 99.7658C136.095 99.6813 135.987 99.5419 135.943 99.3783C135.943 99.3783 134.82 95.4173 132.105 95.0718C131.615 94.9902 131.111 95.0528 130.655 95.2522C130.2 95.4515 129.812 95.779 129.539 96.1947C129.135 96.8764 128.922 97.6542 128.922 98.4467C128.922 99.2391 129.135 100.017 129.539 100.699C131.279 103.969 134.758 105.992 135.524 105.746C136.289 105.499 136.757 104.203 136.906 103.598C136.948 103.435 137.054 103.295 137.2 103.209C137.345 103.124 137.519 103.099 137.683 103.142C137.847 103.184 137.987 103.29 138.072 103.436C138.158 103.582 138.182 103.756 138.14 103.919C138.065 104.178 137.411 106.387 135.955 106.918C135.82 106.964 135.679 106.989 135.536 106.992Z" fill="#263238"/>
<path d="M125.525 113.258L143.528 125.128L142.529 133.828L122.946 118.009L125.525 113.258Z" fill="#94B4E9"/>
<path d="M142.535 134.474C142.395 134.478 142.258 134.43 142.153 134.338L122.57 118.519C122.458 118.427 122.381 118.3 122.351 118.158C122.322 118.017 122.343 117.869 122.409 117.741L124.988 112.99C125.027 112.915 125.082 112.848 125.149 112.795C125.216 112.742 125.294 112.704 125.376 112.683C125.459 112.662 125.545 112.658 125.629 112.673C125.714 112.688 125.794 112.72 125.864 112.768L143.868 124.602C143.963 124.666 144.038 124.756 144.086 124.86C144.134 124.965 144.152 125.08 144.139 125.194L143.152 133.832C143.139 133.943 143.096 134.048 143.029 134.137C142.962 134.225 142.872 134.295 142.769 134.338C142.701 134.398 142.621 134.444 142.535 134.474ZM123.742 117.877L142.054 132.684L142.868 125.478L125.753 114.187L123.742 117.877Z" fill="#263238"/>
<path d="M119.079 125.922L110.886 130.006C109.134 130.895 73.1391 141.112 71.6831 143.173C70.227 145.233 57.6406 190.285 57.6406 190.285L65.8341 192.63L83.2946 160.152C83.2946 160.152 127.186 150.786 129.815 149.91C132.443 149.034 135.664 145.221 136.256 141.717" fill="white"/>
<path d="M65.7975 193.231H65.6248L57.3819 190.862C57.3032 190.841 57.2296 190.804 57.1655 190.754C57.1015 190.703 57.0482 190.64 57.0091 190.569C56.9699 190.497 56.9455 190.419 56.9375 190.338C56.9295 190.257 56.9379 190.175 56.9624 190.097C58.1963 185.482 69.6104 144.885 71.0912 142.799C72.0413 141.479 81.8636 138.283 100.867 132.496C105.802 130.99 110.01 129.695 110.528 129.448L118.722 125.351C118.794 125.313 118.872 125.29 118.953 125.283C119.034 125.277 119.116 125.286 119.193 125.311C119.27 125.337 119.341 125.377 119.403 125.431C119.464 125.484 119.513 125.55 119.549 125.623C119.585 125.696 119.606 125.775 119.611 125.856C119.616 125.937 119.605 126.018 119.578 126.095C119.552 126.172 119.511 126.243 119.457 126.304C119.403 126.364 119.338 126.414 119.265 126.449L111.071 130.546C110.504 130.83 107.308 131.78 101.2 133.668C91.4268 136.654 73.2383 142.207 72.066 143.54C70.8938 144.872 63.3296 171.797 58.2827 189.85L65.415 191.886L82.6904 159.803C82.7329 159.724 82.7927 159.655 82.8652 159.602C82.9378 159.548 83.0214 159.512 83.1099 159.495C83.5418 159.396 126.989 150.129 129.556 149.265C131.876 148.5 135.023 144.959 135.59 141.565C135.6 141.485 135.627 141.407 135.669 141.337C135.71 141.268 135.766 141.207 135.832 141.16C135.898 141.112 135.973 141.079 136.052 141.062C136.132 141.044 136.214 141.044 136.294 141.06C136.373 141.071 136.45 141.099 136.519 141.141C136.588 141.183 136.648 141.239 136.695 141.304C136.742 141.37 136.776 141.444 136.794 141.523C136.812 141.602 136.814 141.683 136.799 141.763C136.207 145.304 132.949 149.438 129.951 150.401C127.397 151.252 87.7249 159.729 83.6405 160.605L66.2294 192.824C66.1974 192.923 66.1411 193.012 66.0656 193.083C65.9902 193.154 65.8979 193.205 65.7975 193.231Z" fill="#263238"/>
<mask id="mask10_4631_2290" style="mask-type:luminance" maskUnits="userSpaceOnUse" x="57" y="125" width="80" height="68">
<mask id="mask11_4631_2290" style="mask-type:luminance" maskUnits="userSpaceOnUse" x="57" y="125" width="80" height="68">
<path d="M119.072 125.953L110.879 130.038C109.126 130.926 73.1318 141.143 71.6757 143.204C70.2197 145.265 57.6333 190.316 57.6333 190.316L65.8268 192.661L83.2873 160.183C83.2873 160.183 127.179 150.817 129.807 149.941C132.436 149.065 135.656 145.252 136.249 141.748" fill="white"/>
</mask>
<g mask="url(#mask11_4631_2290)">
<path d="M65.7921 193.278H65.6194L57.3765 190.909C57.2979 190.888 57.2243 190.851 57.1602 190.8C57.0961 190.75 57.0429 190.687 57.0037 190.616C56.9645 190.544 56.9402 190.466 56.9321 190.385C56.9241 190.304 56.9326 190.222 56.957 190.144C58.191 185.529 69.6051 144.932 71.0858 142.846C72.036 141.526 81.8583 138.33 100.861 132.543C105.797 131.037 110.005 129.742 110.523 129.495L118.717 125.398C118.788 125.36 118.867 125.337 118.948 125.33C119.029 125.323 119.11 125.333 119.188 125.358C119.265 125.384 119.336 125.424 119.397 125.478C119.458 125.531 119.508 125.596 119.543 125.67C119.579 125.742 119.6 125.822 119.605 125.903C119.61 125.984 119.599 126.065 119.573 126.142C119.547 126.219 119.505 126.29 119.452 126.35C119.398 126.411 119.333 126.461 119.26 126.496L111.066 130.593C110.498 130.877 107.302 131.827 101.194 133.715C91.4214 136.701 73.2329 142.254 72.0606 143.587C70.8884 144.919 63.3242 171.844 58.2773 189.897L65.4096 191.933L82.685 159.85C82.7276 159.771 82.7873 159.702 82.8599 159.648C82.9325 159.595 83.0161 159.559 83.1046 159.542C83.5364 159.443 126.984 150.176 129.551 149.312C131.871 148.547 135.017 145.006 135.585 141.612C135.595 141.532 135.622 141.454 135.663 141.384C135.705 141.314 135.76 141.254 135.826 141.206C135.892 141.159 135.967 141.126 136.047 141.108C136.126 141.091 136.208 141.09 136.288 141.106C136.368 141.118 136.445 141.146 136.514 141.188C136.583 141.23 136.642 141.286 136.69 141.351C136.737 141.417 136.77 141.491 136.788 141.57C136.806 141.649 136.808 141.73 136.794 141.81C136.202 145.351 132.944 149.485 129.946 150.447C127.391 151.299 87.7196 159.776 83.6352 160.652L66.224 192.871C66.1921 192.97 66.1358 193.059 66.0603 193.13C65.9848 193.201 65.8926 193.252 65.7921 193.278Z" fill="white"/>
</g>
</mask>
<g mask="url(#mask10_4631_2290)">
<path d="M93.2613 135.488C83.1923 138.598 72.4321 142.065 71.6424 143.164C70.6059 144.62 63.9795 167.695 60.2036 180.997C65.7688 178.134 74.7026 173.284 71.6424 173.05C67.4593 172.717 66.8176 170.471 72.2841 166.609C77.7505 162.746 88.3255 155.022 85.4874 154.38C82.6493 153.739 72.6172 152.443 78.7253 149.222C84.8334 146.002 118.644 149.222 124.752 146.323C130.86 143.423 117.027 142.139 108.982 141.177C100.937 140.214 116.386 140.214 116.386 140.214C116.386 140.214 121.865 139.894 120.569 134.045C119.273 128.196 113.671 130.343 110.845 129.948C110.093 130.33 102.973 132.416 95.0136 134.884L93.2613 135.488Z" fill="#94B4E9"/>
<path opacity="0.5" d="M93.2613 135.488C83.1923 138.598 72.4321 142.065 71.6424 143.164C70.6059 144.62 63.9795 167.695 60.2036 180.997C65.7688 178.134 74.7026 173.284 71.6424 173.05C67.4593 172.717 66.8176 170.471 72.2841 166.609C77.7505 162.746 88.3255 155.022 85.4874 154.38C82.6493 153.739 72.6172 152.443 78.7253 149.222C84.8334 146.002 118.644 149.222 124.752 146.323C130.86 143.423 117.027 142.139 108.982 141.177C100.937 140.214 116.386 140.214 116.386 140.214C116.386 140.214 121.865 139.894 120.569 134.045C119.273 128.196 113.671 130.343 110.845 129.948C110.093 130.33 102.973 132.416 95.0136 134.884L93.2613 135.488Z" fill="#94B4E9"/>
</g>
<path d="M65.8097 192.619C65.8097 192.619 67.8581 202.565 67.8581 203.441C67.8581 204.317 64.9212 206.662 64.9212 206.662L63.169 209.29C63.169 209.29 59.9484 210.524 59.0723 209.29C58.4291 208.286 57.9384 207.192 57.6162 206.045C57.6162 206.045 53.8033 206.341 53.2233 203.712C52.6434 201.084 57.6162 190.25 57.6162 190.25L65.8097 192.619Z" fill="white"/>
<path d="M60.551 210.425C60.1852 210.458 59.8166 210.406 59.4741 210.274C59.1316 210.141 58.8244 209.931 58.5766 209.66C57.9653 208.745 57.4874 207.748 57.1576 206.698C55.9977 206.698 53.1719 206.377 52.6166 203.86C52.012 201.108 56.5283 191.138 57.0465 190.003C57.1104 189.871 57.2179 189.766 57.3507 189.706C57.4836 189.645 57.6334 189.632 57.7746 189.67L65.968 192.002C66.0779 192.036 66.1767 192.098 66.2547 192.183C66.3327 192.267 66.3871 192.371 66.4123 192.483C66.7454 194.149 68.473 202.527 68.473 203.428C68.473 204.329 66.5727 206.106 65.3881 207.13L63.6852 209.684C63.6084 209.792 63.5009 209.874 63.3767 209.919C62.4678 210.237 61.5138 210.408 60.551 210.425ZM57.6142 205.489C57.7476 205.489 57.8775 205.532 57.9843 205.612C58.0911 205.692 58.1691 205.805 58.2065 205.933C58.5094 207.002 58.9667 208.02 59.5638 208.956C59.934 209.45 61.5998 209.203 62.7721 208.808L64.4133 206.34C64.4477 206.289 64.4892 206.244 64.5367 206.205C65.5885 205.444 66.5025 204.509 67.239 203.441C67.239 202.873 66.0051 196.962 65.277 193.125L57.9473 191.039C56.0717 195.21 53.4434 201.923 53.8259 203.626C54.2825 205.711 57.5278 205.489 57.5278 205.477L57.6142 205.489Z" fill="#263238"/>
<path d="M68.1369 187.675H67.9641L58.8945 185.072C58.7393 185.023 58.6089 184.916 58.5307 184.774C58.4524 184.631 58.4325 184.464 58.475 184.307C58.4962 184.228 58.5331 184.154 58.5835 184.09C58.6338 184.026 58.6966 183.973 58.7681 183.934C58.8395 183.895 58.9182 183.87 58.9993 183.862C59.0804 183.854 59.1623 183.863 59.24 183.887L68.3096 186.516C68.4733 186.538 68.6211 186.625 68.7206 186.757C68.8201 186.889 68.8631 187.055 68.8402 187.219C68.8173 187.383 68.7304 187.53 68.5984 187.63C68.4665 187.729 68.3005 187.772 68.1369 187.749V187.675Z" fill="#263238"/>
<path d="M294.867 209.656C287.883 205.843 284.699 209.015 282.157 205.843C279.615 202.672 289.141 194.405 270.077 186.1C270.077 186.1 268.843 168.306 242.757 167.665C216.671 167.023 223.692 185.471 216.696 189.876C209.699 194.281 207.799 187.334 200.815 191.789C193.83 196.243 197.002 205.128 191.276 206.399C185.55 207.67 177.937 200.685 170.94 205.165C163.944 209.644 163.956 213.432 160.773 213.432C157.589 213.432 151.246 210.89 147.434 213.432C143.621 215.974 139.166 219.145 139.166 219.145H299.951C299.951 219.145 301.863 213.469 294.867 209.656Z" fill="white"/>
<path d="M377.067 88.0936C372.896 85.8108 370.995 87.7111 369.478 85.8108C367.96 83.9105 373.661 78.987 362.271 74.0635C362.271 74.0635 361.519 63.4391 345.971 63.0566C330.423 62.6741 334.581 73.681 330.411 76.334C326.24 78.987 325.105 74.8162 320.934 77.4692C316.763 80.1222 318.651 85.4406 315.245 86.1933C311.84 86.946 307.274 82.7876 303.103 85.4406C298.932 88.0936 298.932 90.3764 297.032 90.3764C295.132 90.3764 291.344 88.8587 289.073 90.3764C286.803 91.8942 284.137 93.7945 284.137 93.7945H380.102C380.102 93.7945 381.237 90.3641 377.067 88.0936Z" fill="#FFEFEF"/>
<path d="M459.705 240.767C454.769 238.089 452.56 240.323 450.771 238.089C448.982 235.856 455.707 230.056 442.294 224.244C442.294 224.244 441.393 211.744 423.093 211.3C404.794 210.856 409.705 223.8 404.794 226.934C399.882 230.069 398.537 225.145 393.626 228.267C388.715 231.389 390.949 237.645 386.938 238.534C382.928 239.422 377.56 234.523 372.649 237.645C367.738 240.767 367.713 243.445 365.504 243.445C363.296 243.445 358.804 241.656 356.126 243.445C353.449 245.234 349.5 253.6 349.5 253.6H462.444C462.444 253.6 464.567 243.445 459.705 240.767Z" fill="#FFEFEF"/>
<g opacity="0.11">
<path d="M458.934 246.963C453.998 244.285 451.789 246.519 450.012 244.285C448.235 242.052 454.948 236.252 441.523 230.453C441.523 230.453 440.634 217.953 422.322 217.496C404.01 217.04 408.934 229.996 404.023 233.13C399.111 236.265 397.779 231.341 392.917 234.463C388.055 237.585 390.239 243.841 386.217 244.73C382.194 245.618 376.838 240.719 371.927 243.841C367.016 246.963 366.991 249.641 364.783 249.641C362.574 249.641 358.095 247.864 355.417 249.641C352.739 251.418 349.605 253.663 349.605 253.663H462.561C462.561 253.663 463.845 249.641 458.934 246.963Z" fill="#6A6A6A"/>
</g>
<path d="M498.712 186.075C491.198 181.978 487.792 185.396 485.052 181.978C482.313 178.56 492.567 169.638 472.071 160.791C472.071 160.791 470.714 141.664 442.691 140.986C414.668 140.307 422.207 160.112 414.692 164.9C407.177 169.688 405.117 162.16 397.602 166.948C390.087 171.736 393.505 181.287 387.36 182.657C381.215 184.026 373.009 176.487 365.494 181.287C357.979 186.087 357.98 190.171 354.561 190.171C351.143 190.171 344.32 187.444 340.223 190.171C336.126 192.898 330.067 205.719 330.067 205.719H502.92C502.92 205.719 506.227 190.171 498.712 186.075Z" fill="#FFEFEF"/>
<g opacity="0.11">
<path d="M497.547 195.543C490.032 191.447 486.614 194.852 483.875 191.447C481.135 188.041 491.39 179.107 470.894 170.26C470.894 170.26 469.536 151.133 441.525 150.455C413.514 149.776 421.029 169.581 413.514 174.356C406 179.132 403.951 171.629 396.424 176.417C388.897 181.205 392.327 190.756 386.182 192.125C380.037 193.495 371.831 185.955 364.317 190.756C356.802 195.556 356.802 199.64 353.384 199.64C349.966 199.64 343.142 196.913 339.045 199.64C334.948 202.367 330.161 205.81 330.161 205.81H503.013C503.013 205.81 505.062 199.64 497.547 195.543Z" fill="#6A6A6A"/>
</g>
<path d="M369.178 293.866C362.91 290.448 360.059 293.299 357.789 290.448C355.518 287.598 364.045 280.194 346.967 272.79C346.967 272.79 345.819 256.848 322.473 256.28C299.126 255.712 305.395 272.223 299.126 276.208C292.858 280.194 291.143 273.938 284.887 277.924C278.63 281.909 281.469 289.881 276.335 291.016C271.202 292.151 264.378 285.895 258.11 289.881C251.841 293.866 251.854 297.284 249.003 297.284C246.153 297.284 240.452 295.014 237.034 297.284C233.616 299.555 228.581 310.241 228.581 310.241H372.67C372.67 310.241 375.447 297.284 369.178 293.866Z" fill="#FFEFEF"/>
<g opacity="0.11">
<path d="M368.182 301.754C361.914 298.336 359.064 301.174 356.793 298.336C354.523 295.497 363.062 288.081 345.971 280.678C345.971 280.678 344.836 264.723 321.477 264.155C298.118 263.587 304.387 280.11 298.131 284.096C291.874 288.081 290.147 281.813 283.891 285.798C277.635 289.784 280.473 297.756 275.339 298.903C270.206 300.051 263.382 293.77 257.114 297.756C250.845 301.741 250.858 305.159 248.007 305.159C245.157 305.159 239.456 302.876 236.05 305.159C232.645 307.442 228.646 310.28 228.646 310.28H372.736C372.736 310.28 374.488 305.172 368.182 301.754Z" fill="#6A6A6A"/>
</g>
</svg>
