<svg width="25" height="17" viewBox="0 0 25 17" fill="none" xmlns="http://www.w3.org/2000/svg">
<path d="M8.6543 0.5H18.9102C20.3026 0.5 21.6401 1.00944 22.665 1.9209L22.8662 2.1084C23.9135 3.13709 24.5 4.5306 24.5 5.98145C24.5 7.34168 23.9841 8.65121 23.0566 9.65723L22.8662 9.85449C21.8186 10.8835 20.3955 11.4629 18.9102 11.4629H8.4707C7.66541 11.4629 6.89488 11.1485 6.32812 10.5918C5.76167 10.0354 5.44531 9.2829 5.44531 8.5C5.44531 7.81514 5.68711 7.15341 6.12695 6.62598L6.32812 6.4082C6.89488 5.85155 7.66541 5.53711 8.4707 5.53711H18.5439C18.6377 5.53718 18.7274 5.56498 18.8027 5.61426L18.873 5.66992C18.9586 5.75398 19.0049 5.86651 19.0049 5.98145C19.0049 6.06767 18.9789 6.15222 18.9297 6.22461L18.873 6.29297C18.7873 6.37712 18.669 6.42569 18.5439 6.42578H8.4707C7.91601 6.42578 7.38226 6.64243 6.9873 7.03027C6.59203 7.41852 6.36816 7.947 6.36816 8.5C6.36816 8.98372 6.53923 9.44863 6.84668 9.81738L6.9873 9.96973C7.38226 10.3576 7.91601 10.5742 8.4707 10.5742H18.9102C20.0678 10.5742 21.1826 10.1505 22.0391 9.38867L22.207 9.23242C23.0832 8.37186 23.5771 7.2024 23.5771 5.98145C23.5771 4.83664 23.1426 3.73754 22.3662 2.89551L22.207 2.73047C21.3312 1.87029 20.1449 1.38867 18.9102 1.38867H8.6543C6.73944 1.38867 4.90064 2.13618 3.54395 3.46875C2.18707 4.80161 1.42285 6.61118 1.42285 8.5C1.42285 10.271 2.09465 11.9723 3.29688 13.2764L3.54395 13.5312C4.90064 14.8638 6.73944 15.6113 8.6543 15.6113H18.5439C18.6378 15.6114 18.7274 15.6392 18.8027 15.6885L18.873 15.7441C18.9586 15.8282 19.0049 15.9407 19.0049 16.0557C19.0049 16.1419 18.9789 16.2264 18.9297 16.2988L18.873 16.3662C18.7872 16.4505 18.6691 16.4999 18.5439 16.5H8.6543C6.62425 16.5 4.67305 15.7576 3.17773 14.4277L2.88477 14.1533C1.35679 12.6523 0.5 10.6187 0.5 8.5C0.5 6.51359 1.25309 4.6018 2.60645 3.13379L2.88477 2.84668C4.41325 1.34537 6.4889 0.5 8.6543 0.5Z" fill="black" stroke="white"/>
</svg>
